SplineFontDB: 3.0
FontName: GChords
FullName: GChords
FamilyName: GChords
Weight: Regular
ItalicAngle: 0
UnderlinePosition: 0
UnderlineWidth: 0
Ascent: 800
Descent: 200
LayerCount: 2
Layer: 0 0 "Arri+AOgA-re"  1
Layer: 1 0 "Avant"  0
XUID: [1021 627 606634559 74654]
OS2Version: 0
OS2_WeightWidthSlopeOnly: 0
OS2_UseTypoMetrics: 0
CreationTime: 1519180033
ModificationTime: 1519180173
PfmFamily: 17
TTFWeight: 400
TTFWidth: 1
LineGap: 90
VLineGap: 90
Panose: 2 11 5 0 0 0 0 0 0 0
OS2TypoAscent: 0
OS2TypoAOffset: 1
OS2TypoDescent: 0
OS2TypoDOffset: 1
OS2TypoLinegap: 90
OS2WinAscent: 0
OS2WinAOffset: 1
OS2WinDescent: 0
OS2WinDOffset: 1
HheadAscent: 0
HheadAOffset: 1
HheadDescent: 0
HheadDOffset: 1
OS2Vendor: 'PfEd'
DEI: 91125
Encoding: Original
UnicodeInterp: none
NameList: Adobe Glyph List
DisplaySize: -24
AntiAlias: 1
FitToEm: 1
WinInfo: 0 22 15
BeginChars: 77 77

StartChar: exclam
Encoding: 0 61473 0
Width: 238
LayerCount: 2
Fore
SplineSet
26 173 m 1
 174 212 l 1
 174 0 l 1
 205 0 l 1
 205 545 l 1
 57 507 l 1
 57 720 l 1
 26 720 l 1
 26 173 l 1
57 410 m 1
 174 440 l 1
 174 311 l 1
 57 280 l 1
 57 410 l 1
EndSplineSet
Validated: 9
EndChar

StartChar: quotedbl
Encoding: 1 61474 1
Width: 847
LayerCount: 2
Fore
SplineSet
16 81 m 1
 20 51.667 30 31.333 46 20 c 1
 60.667 6.667 83.667 0 115 0 c 0
 134.333 0 150.666 3.33301 163.999 10 c 0
 177.999 16 189.332 26.333 197.999 41 c 0
 205.332 53 208.999 66.667 208.999 82 c 0
 208.999 96.667 205.666 109.667 198.999 121 c 1
 190.999 131 181.999 138.667 171.999 144 c 1
 165.332 146 145.999 153 113.999 165 c 1
 102.666 167 95.333 169 92 171 c 1
 83.333 172.333 79 173.333 79 174 c 2
 81 174 l 1
 73 175.333 68 178.666 66 183.999 c 1
 62.667 187.999 61 192.332 61 196.999 c 0
 61 204.999 65 211.666 73 216.999 c 1
 79 222.999 91.333 225.999 110 225.999 c 0
 124.667 225.999 136.334 222.332 145.001 214.999 c 0
 152.334 207.665 157.334 198.332 160.001 186.999 c 1
 198.001 194.999 l 1
 196.001 206.999 191.668 220.666 185.001 235.999 c 1
 178.334 244.666 168.334 252.666 155.001 259.999 c 1
 141.001 265.999 125.001 268.999 107.001 268.999 c 0
 94.334 268.999 83.001 266.999 73.001 262.999 c 1
 63.001 260.332 55.001 255.999 49.001 249.999 c 1
 40.334 243.332 34.001 234.999 30.001 224.999 c 0
 25.334 215.666 23.001 204.999 23.001 192.999 c 0
 23.001 180.332 25.668 168.332 31.001 156.999 c 0
 37.001 144.999 45.668 136.666 57.001 131.999 c 1
 66.334 125.999 86.001 118.999 116.001 110.999 c 0
 130.001 107.666 143.668 103.333 157.001 98 c 1
 165.668 92 170.001 85.333 170.001 78 c 0
 170.001 67.333 165.668 59 157.001 53 c 0
 146.334 45.667 132.667 42 116 42 c 0
 97.333 42 83 46 73 54 c 1
 61 62 54.667 73.667 54 89 c 1
 16 81 l 1
406 2.99902 m 1
 444 3 l 1
 444 265 l 1
 406 265 l 1
 406 129 l 2
 406 107 403.667 90.333 399 79 c 0
 394.333 67 387 58 377 52 c 0
 364.333 45.333 353.333 42 344 42 c 0
 333.333 42 323.666 45.333 315 52 c 1
 305 58 299.667 67 299 79 c 0
 297.667 89 297 104 297 124 c 2
 297 265 l 1
 258 265 l 1
 258 104 l 2
 258 89.333 258.667 75.666 260 62.999 c 0
 261.333 50.332 265.333 39.332 272 29.999 c 1
 276 21.332 284.667 13.999 298 7.999 c 1
 306.667 2.666 319 -0.000999451 335 -0.000999451 c 0
 364.333 -0.000999451 388 15.999 406 47.999 c 1
 406 2.99902 l 1
491 81 m 1
 495 51.667 505.003 31.333 521.003 20 c 1
 535.67 6.667 558.67 0 590.003 0 c 0
 609.336 0 625.669 3.33301 639.002 10 c 0
 653.002 16 664.335 26.333 673.002 41 c 0
 680.335 53 684.002 66.667 684.002 82 c 0
 684.002 96.667 680.669 109.667 674.002 121 c 1
 667.335 130.333 658.668 138 648.001 144 c 1
 641.334 146 633.001 149 623.001 153 c 0
 613.001 157 602.001 161 590.001 165 c 1
 579.334 167 571.667 169 567 171 c 0
 565.667 171 562 172 556 174 c 0
 548 175.333 543 178.666 541 183.999 c 1
 538.333 187.999 537 192.332 537 196.999 c 0
 537 205.666 540.667 212.333 548 216.999 c 1
 554 222.999 566.667 225.999 586 225.999 c 0
 600 225.999 611.333 222.332 620 214.999 c 0
 627.333 207.665 632.333 198.332 635 186.999 c 1
 674 194.999 l 1
 670.667 211.666 666 225.333 660 235.999 c 0
 654 245.999 644 253.999 630 259.999 c 0
 616 265.999 600 268.999 582 268.999 c 0
 570 268.999 559 266.999 549 262.999 c 1
 539.663 260.999 531.33 256.666 524.001 249.999 c 0
 516.001 243.999 509.668 235.666 505.001 224.999 c 0
 500.334 215.666 498.001 204.999 498.001 192.999 c 0
 498.001 178.999 501.001 166.999 507.001 156.999 c 1
 511.001 146.332 519.334 137.999 532.001 131.999 c 1
 541.334 125.999 561.001 118.999 591.001 110.999 c 0
 608.334 106.999 622.001 102.666 632.001 97.999 c 0
 641.334 92.666 646.001 85.999 646.001 77.999 c 0
 646.001 67.332 641.334 58.999 632.001 52.999 c 0
 621.334 45.666 607.667 41.999 591 41.999 c 0
 572.333 41.999 558 45.999 548 53.999 c 1
 538 60.666 532 72.333 530 89 c 1
 491 81 l 1
820.003 400.999 m 1
 662.004 400.999 l 1
 672.004 414.332 678.004 421.999 680.004 423.999 c 0
 682.681 427.999 688.348 433.666 697.004 440.999 c 2
 698.004 441.999 l 1
 708.004 450.999 l 2
 713.337 456.332 719.337 461.999 726.004 467.999 c 0
 750.004 489.999 769.671 510.666 785.004 529.999 c 1
 795.671 545.332 803.671 559.999 809.004 573.999 c 0
 813.671 587.999 816.004 602.332 816.004 616.999 c 0
 816.004 643.667 807.337 667.334 790.004 687.999 c 1
 771.337 707.332 747.337 716.999 718.004 716.999 c 0
 688.004 716.999 664.337 708.332 647.004 690.999 c 1
 628.337 674.332 618.004 649.332 616.004 615.999 c 1
 655.004 607.999 l 1
 655.004 627.999 660.671 644.332 672.004 656.999 c 0
 683.337 668.332 698.337 673.999 717.004 673.999 c 0
 735.004 673.999 749.671 668.332 761.004 656.999 c 0
 772.337 645.666 778.004 631.666 778.004 614.999 c 0
 778.004 597.663 771.671 580.33 759.004 562.999 c 0
 747.004 544.999 724.004 519.999 690.004 487.999 c 0
 666.671 466.666 649.671 448.999 639.004 434.999 c 0
 626.337 418.999 617.67 403.332 613.003 387.999 c 0
 610.336 377.332 609.003 367.332 609.003 357.999 c 1
 820.003 357.999 l 1
 820.003 400.999 l 1
EndSplineSet
Validated: 524297
EndChar

StartChar: numbersign
Encoding: 2 61475 2
Width: 265
LayerCount: 2
Fore
SplineSet
159 315 m 1
 89 300 l 1
 89 441 l 1
 159 459 l 1
 159 315 l 1
58 291 m 1
 12 278 l 1
 12 175 l 1
 58 186 l 1
 58 0 l 1
 89 0 l 1
 89 194 l 1
 159 212 l 1
 159 32 l 1
 191 32 l 1
 191 220 l 1
 239 232 l 1
 239 335 l 1
 191 323 l 1
 191 465 l 1
 239 478 l 1
 239 578 l 1
 191 566 l 1
 191 754 l 1
 159 754 l 1
 159 558 l 1
 89 543 l 1
 89 730 l 1
 58 730 l 1
 58 535 l 1
 12 521 l 1
 12 422 l 1
 58 433 l 1
 58 291 l 1
EndSplineSet
Validated: 9
EndChar

StartChar: dollar
Encoding: 3 61476 3
Width: 815
LayerCount: 2
Fore
SplineSet
21 81 m 1
 25 51.667 35 31.333 51 20 c 1
 65.667 6.667 88.667 0 120 0 c 0
 139.333 0 155.666 3.33301 168.999 10 c 0
 182.999 16 194.332 26.333 202.999 41 c 0
 210.332 53 213.999 66.667 213.999 82 c 0
 213.999 96.667 210.666 109.667 203.999 121 c 1
 195.999 131 186.999 138.667 176.999 144 c 1
 170.332 146 150.999 153 118.999 165 c 1
 107.666 167 100.333 169 97 171 c 1
 88.333 172.333 84 173.333 84 174 c 2
 86 174 l 1
 78 175.333 73 178.666 71 183.999 c 1
 67.667 187.999 66 192.332 66 196.999 c 0
 66 204.999 70 211.666 78 216.999 c 1
 84 222.999 96.333 225.999 115 225.999 c 0
 129.667 225.999 141.334 222.332 150.001 214.999 c 0
 157.334 207.665 162.334 198.332 165.001 186.999 c 1
 203.001 194.999 l 1
 201.001 206.999 196.668 220.666 190.001 235.999 c 1
 183.334 244.666 173.334 252.666 160.001 259.999 c 1
 146.001 265.999 130.001 268.999 112.001 268.999 c 0
 99.334 268.999 88.001 266.999 78.001 262.999 c 1
 68.001 260.332 60.001 255.999 54.001 249.999 c 1
 45.334 243.332 39.001 234.999 35.001 224.999 c 0
 30.334 215.666 28.001 204.999 28.001 192.999 c 0
 28.001 180.332 30.668 168.332 36.001 156.999 c 0
 42.001 144.999 50.668 136.666 62.001 131.999 c 1
 71.334 125.999 91.001 118.999 121.001 110.999 c 0
 135.001 107.666 148.668 103.333 162.001 98 c 1
 170.668 92 175.001 85.333 175.001 78 c 0
 175.001 67.333 170.668 59 162.001 53 c 0
 151.334 45.667 137.667 42 121 42 c 0
 102.333 42 88 46 78 54 c 1
 66 62 59.667 73.667 59 89 c 1
 21 81 l 1
411 2.99902 m 1
 449 3 l 1
 449 265 l 1
 411 265 l 1
 411 129 l 2
 411 107 408.667 90.333 404 79 c 0
 399.333 67 392 58 382 52 c 0
 369.333 45.333 358.333 42 349 42 c 0
 338.332 42 328.665 45.333 320 52 c 1
 310 58 304.667 67 304 79 c 0
 302.667 89 302 104 302 124 c 2
 302 265 l 1
 263 265 l 1
 263 104 l 2
 263 89.333 263.667 75.666 265 62.999 c 0
 266.333 50.332 270.333 39.332 277 29.999 c 1
 281 21.332 289.667 13.999 303 7.999 c 1
 311.667 2.666 324 -0.000999451 340 -0.000999451 c 0
 369.333 -0.000999451 393 15.999 411 47.999 c 1
 411 2.99902 l 1
496 81 m 1
 500 51.667 510.004 31.333 526.004 20 c 1
 540.671 6.667 563.671 0 595.004 0 c 0
 614.337 0 630.67 3.33301 644.003 10 c 0
 658.003 16 669.336 26.333 678.003 41 c 0
 685.336 53 689.003 66.667 689.003 82 c 0
 689.003 96.667 685.67 109.667 679.003 121 c 1
 672.336 130.333 663.669 138 653.002 144 c 1
 646.335 146 638.002 149 628.002 153 c 0
 618.002 157 607.002 161 595.002 165 c 1
 584.335 167 576.668 169 572.001 171 c 0
 570.668 171 567.001 172 561.001 174 c 0
 553.001 175.333 548.001 178.666 546.001 183.999 c 1
 543.334 187.999 542.001 192.332 542.001 196.999 c 0
 542.001 205.666 545.668 212.333 553.001 216.999 c 1
 559.001 222.999 571.668 225.999 591.001 225.999 c 0
 605.001 225.999 616.334 222.332 625.001 214.999 c 0
 632.334 207.665 637.334 198.332 640.001 186.999 c 1
 679.001 194.999 l 1
 675.668 211.666 671.001 225.333 665.001 235.999 c 0
 659.001 245.999 649.001 253.999 635.001 259.999 c 0
 621.001 265.999 605.001 268.999 587.001 268.999 c 0
 575.001 268.999 564.001 266.999 554.001 262.999 c 1
 544.663 260.999 536.33 256.666 529.001 249.999 c 0
 521.001 243.999 514.668 235.666 510.001 224.999 c 0
 505.334 215.666 503.001 204.999 503.001 192.999 c 0
 503.001 178.999 506.001 166.999 512.001 156.999 c 1
 516.001 146.332 524.334 137.999 537.001 131.999 c 1
 546.334 125.999 566.001 118.999 596.001 110.999 c 0
 613.334 106.999 627.001 102.666 637.001 97.999 c 0
 646.334 92.666 651.001 85.999 651.001 77.999 c 0
 651.001 67.332 646.334 58.999 637.001 52.999 c 0
 626.334 45.666 612.667 41.999 596 41.999 c 0
 577.333 41.999 563 45.999 553 53.999 c 1
 543 60.666 537 72.333 535 89 c 1
 496 81 l 1
712.004 362.999 m 1
 751.004 362.999 l 1
 751.004 448.999 l 1
 790.004 448.999 l 1
 790.004 491.999 l 1
 751.004 491.999 l 1
 751.004 718.999 l 1
 719.004 718.999 l 1
 568.004 491.999 l 1
 568.004 448.999 l 1
 712.004 448.999 l 1
 712.004 362.999 l 1
712.004 491.999 m 1
 615.004 491.999 l 1
 712.004 636.999 l 1
 712.004 491.999 l 1
EndSplineSet
Validated: 524297
EndChar

StartChar: percent
Encoding: 4 61477 4
Width: 357
LayerCount: 2
Fore
SplineSet
243 444 m 1
 243 443 l 1
 225 421 202 410 174 410 c 0
 145.333 410 122 421.333 104 444 c 0
 86.667 466 78 494.333 78 529 c 0
 78 565 87 594 105 616 c 0
 122.333 638.667 145.333 650 174 650 c 0
 201.333 650 224.333 638.667 243 616 c 0
 261 594 270 565 270 529 c 0
 270 494.333 261 466 243 444 c 1
62 399 m 1
 62.002 398.001 l 1
 93.335 368.668 130.668 354.001 174.001 354.001 c 0
 215.334 354.001 253.001 368.334 287.001 397.001 c 1
 318.334 425.001 334.001 469.001 334.001 529.001 c 0
 334.001 588.334 318.334 632.667 287.001 662 c 0
 254.334 691.333 216.667 706 174 706 c 0
 128 706 90 691 60 661 c 0
 29.333 631 14 587 14 529 c 0
 14 470.333 30 427 62 399 c 1
46.002 322.001 m 1
 91.002 323.001 l 1
 298.002 719.001 l 1
 254.002 722.001 l 1
 46.002 322.001 l 1
EndSplineSet
Validated: 524293
EndChar

StartChar: ampersand
Encoding: 5 61478 5
Width: 405
LayerCount: 2
Fore
SplineSet
39 514 m 1
 45.667 530.667 55.333 539 68 539 c 0
 73.333 539 78.333 536.667 83 532 c 1
 86.334 525.333 88.667 518.666 90 511.999 c 0
 90 509.328 88.667 502.661 86 491.998 c 0
 84 484.665 80.667 477.998 76 471.998 c 0
 73.333 469.331 71 465.998 69 461.998 c 2
 61 449.998 l 2
 57.667 446.665 54 442.332 50 436.999 c 0
 46 431.666 42.333 427.333 39 424 c 1
 39 514 l 1
21.999 388 m 1
 23 388.001 l 1
 27 394.001 37.333 405.001 54 421.001 c 0
 63.333 429.001 69.666 434.668 72.999 438.001 c 0
 76.999 440.668 80.332 443.335 82.999 446.002 c 0
 86.999 450.002 89.999 452.669 91.999 454.002 c 0
 97.332 458.669 102.999 464.002 108.999 470.002 c 2
 111.999 473.002 l 2
 112.666 474.343 113.666 475.676 114.999 477.002 c 2
 117.999 480.002 l 2
 118.666 481.339 119.666 482.672 120.999 484.002 c 0
 124.999 490.002 127.666 495.002 128.999 499.002 c 0
 130.999 503.002 131.999 508.002 131.999 514.002 c 0
 130.666 529.335 125.999 540.668 117.999 548.001 c 0
 114.666 551.334 109.666 554.667 102.999 558 c 1
 94.999 559.333 89.332 560 85.999 560 c 0
 68.666 560 52.999 553 38.999 539 c 1
 38.999 748 l 1
 22.999 748 l 1
 21.999 388 l 1
156 489.001 m 1
 156.667 457.668 166.999 433.002 186.999 415.002 c 1
 204.332 396.335 227.332 387.002 255.999 387.002 c 0
 290.666 387.002 318.333 401.335 339 430.002 c 1
 355 454.002 363 482.002 363 514.002 c 0
 363 548.002 354 575.669 336 597.002 c 0
 317.333 618.335 294.666 629.002 268 629.002 c 0
 248 629.002 228.667 620.669 210 604.002 c 1
 227 704.002 l 1
 346 704.002 l 1
 346 747.002 l 1
 195 747.002 l 1
 163 563.002 l 1
 202 555.002 l 1
 206.667 564.335 214 572.002 224 578.002 c 0
 233.333 583.335 244.666 586.002 257.999 586.002 c 0
 278.666 586.002 295.333 579.335 308 566.002 c 1
 319.333 551.335 325 533.002 325 511.002 c 0
 325 486.334 318.667 466.667 306 452.001 c 0
 293.333 437.334 277 430.001 257 430.001 c 0
 239.667 430.001 225.667 435.334 215 446.001 c 0
 203 457.334 196.333 473.001 195 493.001 c 1
 156 489.001 l 1
145.999 0.00195312 m 1
 145.997 360.002 l 1
 120.997 360.002 l 1
 114.33 345.335 102.33 329.335 84.9971 312.002 c 0
 67.6641 294.669 48.3311 280.669 26.998 270.002 c 1
 26.998 227.002 l 1
 34.998 230.335 48.998 238.002 68.998 250.002 c 0
 87.665 261.335 100.332 271.335 106.999 280.002 c 1
 106.999 0.00195312 l 1
 145.999 0.00195312 l 1
171.997 98.002 m 1
 172.664 68.002 182.999 43.3359 202.999 24.0029 c 0
 220.999 6.0029 243.999 -2.9971 271.999 -2.9971 c 0
 303.332 -2.9971 328.999 7.6699 348.999 29.0029 c 0
 368.999 51.0029 378.999 78.0029 378.999 110.003 c 0
 378.999 132.003 373.332 151.336 361.999 168.003 c 1
 349.999 183.336 334.999 193.669 316.999 199.002 c 1
 332.332 207.669 343.332 217.669 349.999 229.002 c 0
 357.999 241.002 361.999 254.669 361.999 270.002 c 0
 361.999 285.335 357.999 300.002 349.999 314.002 c 0
 341.999 328.002 330.999 339.002 316.999 347.002 c 0
 299.666 355.669 283.666 360.002 268.999 360.002 c 0
 244.999 360.002 224.332 351.669 206.999 335.002 c 0
 188.999 317.002 178.332 294.002 174.999 266.002 c 1
 213.999 258.002 l 1
 214.666 275.335 220.999 290.002 232.999 302.002 c 0
 242.999 312.002 255.666 317.002 270.999 317.002 c 0
 286.333 317.002 298.666 312.002 307.998 302.002 c 0
 317.998 292.669 322.998 281.002 322.998 267.002 c 0
 322.998 249.002 316.331 236.002 302.998 228.002 c 0
 289.665 219.335 275.332 215.002 259.999 215.002 c 2
 256.999 215.002 l 1
 252.999 215.002 l 1
 248.999 172.002 l 1
 262.333 175.335 271.666 177.002 276.998 177.002 c 0
 294.998 177.002 310.331 170.669 322.998 158.002 c 0
 334.331 145.335 339.998 129.335 339.998 110.002 c 0
 339.998 88.6689 333.998 72.002 321.998 60.002 c 1
 309.998 46.002 293.998 39.002 273.998 39.002 c 0
 257.331 39.002 243.664 44.335 232.997 55.002 c 1
 220.997 63.6689 213.33 80.6689 209.997 106.002 c 1
 171.997 98.002 l 1
EndSplineSet
Validated: 524297
EndChar

StartChar: quotesingle
Encoding: 6 61479 6
Width: 508
LayerCount: 2
Fore
SplineSet
277 100 m 1
 278.333 70 289 45.334 309 26.001 c 0
 327 8.001 350 -0.999001 378 -0.999001 c 0
 408.667 -0.999001 434 9.668 454 31.001 c 0
 474.667 52.334 485 79.334 485 112.001 c 0
 485 134.001 479.333 153.334 468 170.001 c 1
 456 185.334 441 195.667 423 201 c 1
 435.667 207 446.667 216.667 456 230 c 1
 463.333 243.333 467 257 467 271 c 0
 467 287 463 302 455 316 c 0
 448.333 328.667 437.333 339.667 422 349 c 0
 408 357 392.333 361 375 361 c 0
 349.667 361 329 353 313 337 c 0
 295.667 320.333 285 297.333 281 268 c 1
 319 260 l 1
 321 278 327.667 292.667 339 304 c 0
 349 313.333 361.667 318 377 318 c 0
 391 318 403.333 313.333 414 304 c 0
 423.333 294.667 428 283 428 269 c 0
 428 250.333 421.667 237 409 229 c 0
 393.667 220.333 379 216 365 216 c 1
 363 217 l 1
 359 217 l 1
 355 174 l 1
 368.333 177.333 377.333 179 382 179 c 0
 400 179 415.333 172.667 428 160 c 0
 440 146.667 446 130.667 446 112 c 0
 446 91.333 439.667 74.333 427 61 c 0
 414.333 47.667 398.333 41 379 41 c 0
 362.332 41 348.665 46.333 338 57 c 1
 326 67 318.667 83.667 316 107 c 1
 277 100 l 1
243 -0.999023 m 1
 243 358.002 l 1
 218 358.002 l 1
 211.333 343.335 199.333 327.335 182 310.002 c 0
 160 289.335 140.333 275.335 123 268.002 c 1
 123 226.002 l 1
 132.333 227.335 146.666 234.668 165.999 248.001 c 1
 184.666 259.334 197.333 269.334 204 278.001 c 1
 204 -0.999023 l 1
 243 -0.999023 l 1
156 489.002 m 1
 156.667 457.669 166.999 433.003 186.999 415.003 c 1
 204.332 396.336 227.332 387.003 255.999 387.003 c 0
 290.666 387.003 318.333 401.336 339 430.003 c 1
 355 454.003 363 482.003 363 514.003 c 0
 363 548.003 354 575.67 336 597.003 c 0
 317.333 618.336 294.666 629.003 268 629.003 c 0
 248 629.003 228.667 620.67 210 604.003 c 1
 227 704.003 l 1
 346 704.003 l 1
 346 747.003 l 1
 195 747.003 l 1
 163 563.003 l 1
 202 555.003 l 1
 206.667 564.336 214 572.003 224 578.003 c 0
 233.333 583.336 244.666 586.003 257.999 586.003 c 0
 278.666 586.003 295.333 579.336 308 566.003 c 1
 319.333 551.336 325 533.003 325 511.003 c 0
 325 486.335 318.667 466.668 306 452.002 c 0
 293.333 437.335 277 430.002 257 430.002 c 0
 239.667 430.002 225.667 435.335 215 446.002 c 0
 203 457.335 196.333 473.002 195 493.002 c 1
 156 489.002 l 1
38.999 514.003 m 1
 45.666 530.67 55.332 539.003 67.999 539.003 c 0
 73.332 539.003 78.332 536.67 82.999 532.003 c 1
 86.333 525.336 88.666 518.669 89.999 512.002 c 0
 89.999 509.331 88.666 502.664 85.999 492.001 c 0
 83.999 484.668 80.666 478.001 75.999 472.001 c 0
 73.332 469.334 70.999 466.001 68.999 462.001 c 2
 60.999 450.001 l 2
 57.666 446.668 53.999 442.335 49.999 437.002 c 0
 45.999 431.669 42.332 427.336 38.999 424.003 c 1
 38.999 514.003 l 1
21.998 388.003 m 1
 22.999 388.004 l 1
 26.999 394.004 37.332 405.004 53.999 421.004 c 0
 63.332 429.004 69.665 434.671 72.998 438.004 c 0
 76.998 440.671 80.3311 443.338 82.998 446.005 c 0
 86.998 450.005 89.998 452.672 91.998 454.005 c 0
 97.3311 458.672 102.998 464.005 108.998 470.005 c 2
 111.998 473.005 l 2
 112.665 474.346 113.665 475.679 114.998 477.005 c 2
 117.998 480.005 l 2
 118.665 481.342 119.665 482.675 120.998 484.005 c 0
 124.998 490.005 127.665 495.005 128.998 499.005 c 0
 130.998 503.005 131.998 508.005 131.998 514.005 c 0
 130.665 529.338 125.998 540.671 117.998 548.004 c 0
 114.665 551.337 109.665 554.67 102.998 558.003 c 1
 94.998 559.336 89.3311 560.003 85.998 560.003 c 0
 68.665 560.003 52.998 553.003 38.998 539.003 c 1
 38.998 748.003 l 1
 22.998 748.003 l 1
 21.998 388.003 l 1
39.999 124.004 m 0
 45.999 140.671 55.666 149.003 68.999 149.003 c 0
 74.332 149.003 79.332 146.67 83.999 142.003 c 0
 87.999 136.67 89.999 130.003 89.999 122.003 c 0
 89.999 114.67 88.999 108.003 86.999 102.003 c 0
 86.332 99.3359 82.999 92.6689 76.999 82.002 c 1
 74.332 79.335 71.999 76.002 69.999 72.002 c 2
 61.999 60.002 l 2
 58.666 56.6689 54.999 52.3359 50.999 47.0029 c 0
 46.999 41.6699 43.332 37.3369 39.999 34.0039 c 1
 39.999 124.004 l 0
22.999 -0.99707 m 1
 24 -0.996094 l 1
 28 5.00391 38.333 15.6709 55 31.0039 c 0
 64.333 39.0039 70.666 44.6709 73.999 48.0039 c 0
 74.666 48.6709 75.999 49.6709 77.999 51.0039 c 2
 82.999 56.0039 l 2
 84.332 56.6709 85.999 58.0039 87.999 60.0039 c 0
 89.332 61.3369 90.999 62.6699 92.999 64.0029 c 0
 100.999 70.0029 106.332 75.3359 108.999 80.0029 c 1
 120.999 94.0029 l 2
 124.332 97.3359 127.332 102.336 129.999 109.003 c 1
 131.332 117.003 131.999 122.003 131.999 124.003 c 0
 131.999 138.003 127.666 149.336 118.999 158.003 c 0
 116.999 158.67 114.666 160.003 111.999 162.003 c 0
 108.666 164.67 105.999 166.67 103.999 168.003 c 0
 95.999 169.336 90.332 170.003 86.999 170.003 c 0
 69.666 170.003 53.999 163.003 39.999 149.003 c 1
 39.999 358.003 l 1
 23.999 358.003 l 1
 22.999 -0.99707 l 1
EndSplineSet
Validated: 524297
EndChar

StartChar: parenleft
Encoding: 7 61480 7
Width: 228
LayerCount: 2
Fore
SplineSet
174 -190 m 1
 230 -188 l 1
 141.333 -36.667 97 115 97 267 c 0
 97 324.333 103.333 383.666 116 444.999 c 0
 124 486.999 138.333 532.666 159 581.999 c 1
 167 605.332 190.667 652.665 230 723.998 c 1
 174 723.998 l 1
 117.333 639.998 77 559.998 53 483.998 c 0
 30.333 410.665 19 338.332 19 266.999 c 0
 19 181.666 34 98.9991 64 18.9991 c 0
 93.333 -60.3339 130 -129.667 174 -189 c 1
 174 -190 l 1
EndSplineSet
Validated: 524297
EndChar

StartChar: parenright
Encoding: 8 61481 8
Width: 217
LayerCount: 2
Fore
SplineSet
42 -190 m 1
 42.001 -188.001 l 1
 83.334 -130.001 119.667 -61.001 151 18.999 c 1
 181.667 101.666 197 184.333 197 267 c 0
 197 338.334 185.667 410.667 163 484 c 1
 137.667 559.333 97.334 639.333 42.001 724 c 1
 -12.999 724 l 1
 5.001 688.667 19.668 659.667 31.001 637 c 0
 42.334 613.667 51.001 595 57.001 581 c 0
 76.334 529 90.667 483.333 100 444 c 1
 112.667 382 119 323 119 267 c 0
 119 117 75 -34.667 -13 -188 c 1
 42 -190 l 1
EndSplineSet
Validated: 524297
EndChar

StartChar: asterisk
Encoding: 9 61482 9
Width: 395
LayerCount: 2
Fore
SplineSet
94 155 m 1
 58 147 l 1
 58 218 l 1
 94 227 l 1
 94 155 l 1
43 143 m 1
 20 136 l 1
 20 84 l 1
 43 90 l 1
 43 -2 l 1
 58 -2 l 1
 58 94 l 1
 94 103 l 1
 94 13 l 1
 109 13 l 1
 109 107 l 1
 134 113 l 1
 134 165 l 1
 109 159 l 1
 109 230 l 1
 134 236 l 1
 134 286 l 1
 109 280 l 1
 109 374 l 1
 94 374 l 1
 94 276 l 1
 58 269 l 1
 58 362 l 1
 43 362 l 1
 43 265 l 1
 20 258 l 1
 20 208 l 1
 43 214 l 1
 43 143 l 1
163 90 m 1
 165 59.333 174.332 36.333 190.999 21 c 1
 204.999 5 224.999 -3 250.999 -3 c 0
 274.332 -3 294.332 3.66699 310.999 17 c 0
 328.999 30.333 341.999 51 349.999 79 c 0
 358.666 107 362.999 143 362.999 187 c 0
 362.999 229.667 358.666 263 349.999 287 c 1
 340.666 309 327.666 327 310.999 341 c 1
 293.666 353 274.999 359 254.999 359 c 0
 225.666 359 201.999 348 183.999 326 c 0
 165.332 302.667 155.999 273.334 155.999 238.001 c 0
 155.999 203.334 164.999 175.001 182.999 153.001 c 0
 200.999 131.668 222.999 121.001 248.999 121.001 c 0
 262.999 121.001 277.666 125.334 292.999 134.001 c 1
 305.666 142.668 316.333 154.001 325 168.001 c 1
 325 163.001 l 1
 325 159.001 l 2
 325 141.001 323 124.001 319 108.001 c 0
 315 91.334 310.667 78.667 306 70 c 0
 301.333 60.667 294 53 284 47 c 0
 273.333 41.667 263 39 253 39 c 0
 239.666 39 228.333 43.333 219 52 c 0
 209 62 203.333 76 202 94 c 1
 163 90 l 1
324.999 240 m 2
 324.998 238.999 l 2
 324.998 215.665 318.665 197.332 305.998 183.999 c 0
 294.665 170.666 279.332 163.999 259.999 163.999 c 0
 238.666 163.999 222.999 170.666 212.999 183.999 c 1
 200.999 195.999 194.999 213.332 194.999 235.999 c 0
 194.999 259.333 201.332 278.666 213.999 293.999 c 0
 225.332 308.666 240.999 315.999 260.999 315.999 c 0
 279.666 315.999 294.999 308.999 306.999 294.999 c 0
 318.999 281.666 324.999 263.333 324.999 240 c 2
157.998 486.999 m 1
 159.998 454.331 169.998 429.665 187.998 412.999 c 1
 205.331 394.332 228.664 384.999 257.997 384.999 c 0
 291.997 384.999 319.33 399.332 339.997 427.999 c 0
 356.664 451.332 364.997 479.332 364.997 511.999 c 0
 364.997 545.999 355.664 573.666 336.997 594.999 c 0
 318.33 616.332 295.997 626.999 269.997 626.999 c 0
 248.664 626.999 229.331 618.666 211.998 601.999 c 1
 227.998 700.999 l 1
 346.998 700.999 l 1
 346.998 743.999 l 1
 195.998 743.999 l 1
 164.998 560.999 l 1
 202.998 552.999 l 1
 208.998 562.999 216.665 570.332 225.998 574.999 c 1
 233.998 580.999 245.331 583.999 259.998 583.999 c 0
 281.332 583.999 297.665 577.332 308.998 563.999 c 0
 320.331 551.332 325.998 532.999 325.998 508.999 c 0
 325.998 483.666 319.998 463.999 307.998 449.999 c 0
 295.331 435.332 278.664 427.999 257.998 427.999 c 0
 239.998 427.999 226.331 433.332 216.998 443.999 c 1
 204.331 453.332 197.331 468.999 195.998 490.999 c 1
 157.998 486.999 l 1
94.998 543 m 1
 58.998 535 l 1
 58.998 606 l 1
 94.998 615 l 1
 94.998 543 l 1
43.998 531 m 1
 20.998 525 l 1
 20.998 473 l 1
 43.998 479 l 1
 43.998 385 l 1
 58.998 385 l 1
 58.998 483 l 1
 94.998 491 l 1
 94.998 402 l 1
 109.998 402 l 1
 109.998 495 l 1
 134.998 502 l 1
 134.998 553 l 1
 109.998 547 l 1
 109.998 618 l 1
 134.998 625 l 1
 134.998 674 l 1
 109.998 669 l 1
 109.998 762 l 1
 94.998 762 l 1
 94.998 665 l 1
 58.998 657 l 1
 58.998 751 l 1
 43.998 751 l 1
 43.998 653 l 1
 20.998 646 l 1
 20.998 596 l 1
 43.998 602 l 1
 43.998 531 l 1
EndSplineSet
Validated: 524297
EndChar

StartChar: plus
Encoding: 10 61483 10
Width: 470
LayerCount: 2
Fore
SplineSet
198 105 m 1
 275 105 l 1
 275 301 l 1
 451 301 l 1
 451 387 l 1
 275 387 l 1
 275 582 l 1
 198 582 l 1
 198 387 l 1
 22 387 l 1
 22 301 l 1
 198 301 l 1
 198 105 l 1
EndSplineSet
Validated: 9
EndChar

StartChar: comma
Encoding: 11 61484 11
Width: 389
LayerCount: 2
Fore
SplineSet
160 487 m 1
 162 454.332 172 429.666 190 413 c 1
 207.333 394.333 230.666 385 259.999 385 c 0
 293.999 385 321.332 399.333 341.999 428 c 0
 358.666 451.333 366.999 479.333 366.999 512 c 0
 366.999 546 357.666 573.667 338.999 595 c 0
 320.332 616.333 297.999 627 271.999 627 c 0
 250.666 627 231.333 618.667 214 602 c 1
 230 701 l 1
 349 701 l 1
 349 744 l 1
 198 744 l 1
 167 561 l 1
 205 553 l 1
 211 563 218.667 570.333 228 575 c 1
 236 581 247.333 584 262 584 c 0
 283.334 584 299.667 577.333 311 564 c 0
 322.333 551.333 328 533 328 509 c 0
 328 483.667 322 464 310 450 c 0
 297.333 435.333 280.666 428 260 428 c 0
 242 428 228.333 433.333 219 444 c 1
 206.333 453.333 199.333 469 198 491 c 1
 160 487 l 1
97 543.001 m 1
 61 535.001 l 1
 61 606.001 l 1
 97 615.001 l 1
 97 543.001 l 1
46 531.001 m 1
 23 525.001 l 1
 23 473.001 l 1
 46 479.001 l 1
 46 385.001 l 1
 61 385.001 l 1
 61 483.001 l 1
 97 491.001 l 1
 97 402.001 l 1
 112 402.001 l 1
 112 495.001 l 1
 137 502.001 l 1
 137 553.001 l 1
 112 547.001 l 1
 112 618.001 l 1
 137 625.001 l 1
 137 674.001 l 1
 112 669.001 l 1
 112 762.001 l 1
 97 762.001 l 1
 97 665.001 l 1
 61 657.001 l 1
 61 751.001 l 1
 46 751.001 l 1
 46 653.001 l 1
 23 646.001 l 1
 23 596.001 l 1
 46 602.001 l 1
 46 531.001 l 1
40 123.001 m 1
 46 139.668 55.667 148.004 69 148.004 c 0
 73.667 148.004 78.334 145.671 83.001 141.004 c 0
 87.668 136.337 90.001 129.67 90.001 121.003 c 0
 90.001 114.336 88.668 107.669 86.001 101.002 c 0
 83.334 93.6689 80.334 87.002 77.001 81.002 c 0
 74.334 76.335 69.001 69.002 61.001 59.002 c 0
 58.334 55.002 54.667 50.002 50 44.002 c 0
 46 39.335 42.667 35.668 40 33.001 c 1
 40 123.001 l 1
23 -2.99609 m 1
 23 -1.99609 l 1
 24.333 -0.66309 28 3.33691 34 10.0039 c 2
 54 30.0039 l 2
 58 32.6709 61.333 35.3379 64 38.0049 c 0
 68 42.0049 71.333 44.6719 74 46.0049 c 2
 84 56.0049 l 2
 88 59.3379 90.667 61.6709 92 63.0039 c 0
 97.333 66.3369 103 71.6699 109 79.0029 c 0
 111.667 81.6699 115.667 86.3369 121 93.0039 c 1
 130 108.004 l 1
 131.333 116.004 132 121.004 132 123.004 c 0
 132 137.004 127.667 148.337 119 157.004 c 1
 104 167.004 l 1
 96 168.337 90 169.004 86 169.004 c 0
 69.333 169.004 54 162.004 40 148.004 c 1
 40 358.004 l 1
 23 358.004 l 1
 23 -2.996 l 1
 23 -2.99609 l 1
158 90.0039 m 1
 160 59.3369 169.332 36.3369 185.999 21.0039 c 1
 199.999 5.0039 219.999 -2.9961 245.999 -2.9961 c 0
 269.332 -2.9961 289.332 3.67089 305.999 17.0039 c 0
 323.999 30.3369 336.999 51.0039 344.999 79.0039 c 0
 353.666 107.004 357.999 143.004 357.999 187.004 c 0
 357.999 229.671 353.666 263.004 344.999 287.004 c 1
 335.666 309.004 322.666 327.004 305.999 341.004 c 1
 288.666 353.004 269.999 359.004 249.999 359.004 c 0
 220.666 359.004 196.999 348.004 178.999 326.004 c 0
 160.332 302.671 150.999 273.338 150.999 238.005 c 0
 150.999 203.338 159.999 175.005 177.999 153.005 c 0
 195.999 131.672 217.999 121.005 243.999 121.005 c 0
 257.999 121.005 272.666 125.338 287.999 134.005 c 1
 300.666 142.672 311.333 154.005 320 168.005 c 1
 320 163.005 l 1
 320 159.005 l 2
 320 141.005 318 124.005 314 108.005 c 0
 310 91.3378 305.667 78.6708 301 70.0038 c 0
 296.333 60.6708 289 53.0038 279 47.0038 c 0
 268.333 41.6708 258 39.0038 248 39.0038 c 0
 234.666 39.0038 223.333 43.3368 214 52.0038 c 0
 204 62.0038 198.333 76.0038 197 94.0038 c 1
 158 90.0039 l 1
319.999 240.004 m 2
 319.998 239.003 l 2
 319.998 215.669 313.665 197.336 300.998 184.003 c 0
 289.665 170.67 274.332 164.003 254.999 164.003 c 0
 233.666 164.003 217.999 170.67 207.999 184.003 c 1
 195.999 196.003 189.999 213.336 189.999 236.003 c 0
 189.999 259.337 196.332 278.67 208.999 294.003 c 0
 220.332 308.67 235.999 316.003 255.999 316.003 c 0
 274.666 316.003 289.999 309.003 301.999 295.003 c 0
 313.999 281.67 319.999 263.337 319.999 240.004 c 2
EndSplineSet
Validated: 524293
EndChar

StartChar: hyphen
Encoding: 12 61485 12
Width: 400
LayerCount: 2
Fore
SplineSet
21 303 m 1
 376 303 l 1
 376 389 l 1
 21 389 l 1
 21 303 l 1
EndSplineSet
Validated: 9
EndChar

StartChar: period
Encoding: 13 61486 13
Width: 1063
LayerCount: 2
Fore
SplineSet
20 220 m 1
 414 220 l 1
 414 306 l 1
 20 306 l 1
 20 220 l 1
826 464 m 1
 827.333 432 837.669 407.333 857.002 390 c 1
 875.669 371.333 899.002 362 927.002 362 c 0
 961.002 362 988.335 376.333 1009 405 c 0
 1025.67 429.667 1034 457.667 1034 489 c 0
 1034 523 1024.67 550.667 1006 572 c 0
 987.335 593.333 964.668 604 938.001 604 c 0
 917.334 604 898.001 596 880.001 580 c 1
 897.001 679 l 1
 1016 679 l 1
 1016 722 l 1
 865.001 722 l 1
 833.001 538 l 1
 872.001 530 l 1
 876.668 539.333 884.001 547 894.001 553 c 0
 902.001 558.333 913.334 561 928.001 561 c 0
 950.671 561 967.338 554.333 978.001 541 c 0
 989.334 526.333 995.001 508 995.001 486 c 0
 995.001 460.667 989.001 441 977.001 427 c 1
 962.334 412.333 945.667 405 927 405 c 0
 910.333 405 896.333 410.333 885 421 c 0
 873 432.333 866.333 448 865 468 c 1
 826 464 l 1
687.003 722 m 1
 687.003 360.999 l 1
 689.003 362.999 692.003 366.332 696.003 370.999 c 2
 706.003 380.999 l 1
 714.003 388.999 l 1
 719.003 393.999 l 2
 725.003 399.332 734.67 406.999 748.003 416.999 c 1
 761.336 428.334 772.336 438.667 781.003 447.999 c 0
 790.336 457.999 795.003 470.332 795.003 484.999 c 0
 795.003 497.666 790.67 508.333 782.003 517 c 0
 772.67 526.333 763.003 531 753.003 531 c 0
 745.003 531 736.67 529.333 728.003 526 c 2
 716.003 520 l 1
 704.003 514 l 1
 704.003 722 l 1
 687.003 722 l 1
704.003 395.999 m 1
 704.003 486.998 l 2
 704.003 490.331 707.67 495.331 715.003 501.998 c 1
 721.675 506.665 728.342 508.998 735.003 508.998 c 0
 739.67 508.998 744.67 505.998 750.003 499.998 c 0
 754.003 494.665 756.003 487.998 756.003 479.998 c 0
 756.003 465.998 752.003 453.998 744.003 443.998 c 0
 742.003 440.665 739.67 437.332 737.003 433.999 c 0
 733.003 429.999 730.003 426.332 728.003 422.999 c 2
 725.003 419.999 l 1
 713.67 406.666 706.67 398.666 704.003 395.999 c 1
534.003 360.998 m 1
 570.003 360.998 l 1
 665.003 719.998 l 1
 629.003 719.998 l 1
 534.003 360.998 l 1
374.003 678.998 m 1
 532.002 678.999 l 1
 508.669 646.999 490.336 615.332 477.003 583.999 c 0
 458.336 543.332 445.336 504.665 438.003 467.998 c 0
 428.003 423.331 423.003 389.331 423.003 365.998 c 1
 462.003 365.998 l 1
 464.003 401.998 469.003 434.998 477.003 464.998 c 1
 484.336 498.998 499.336 540.665 522.003 589.998 c 0
 540.003 627.998 559.67 660.331 581.003 686.998 c 1
 581.003 721.998 l 1
 374.003 721.998 l 1
 374.003 678.998 l 1
EndSplineSet
Validated: 524297
EndChar

StartChar: slash
Encoding: 14 61487 14
Width: 120
LayerCount: 2
Fore
SplineSet
-9 364 m 1
 26 364 l 1
 121 723 l 1
 85 723 l 1
 -9 364 l 1
EndSplineSet
Validated: 9
EndChar

StartChar: zero
Encoding: 15 61488 15
Width: 379
LayerCount: 2
Fore
SplineSet
21 544 m 0
 21 487.333 36.667 443.333 68 412 c 0
 98 382 138.667 367 190 367 c 0
 222 367 251 374 277 388 c 1
 303 400 323.333 419.333 338 446 c 0
 352 470 359 504.333 359 549 c 0
 359 603.667 343 646 311 676 c 1
 280.333 706.667 240 722 190 722 c 0
 146 722 108.333 709.333 77 684 c 0
 39.667 654 21 607.333 21 544 c 0
82 544 m 0
 82 584.669 92.335 615.337 113.002 636.001 c 0
 133.002 656.001 158.669 666.001 190.002 666.001 c 0
 218.002 666.001 243.669 655.668 267.002 635.001 c 1
 287.669 614.334 298.002 584.667 298.002 546 c 0
 298.002 504 287.669 473.333 267.002 454 c 0
 246.335 433.333 220.668 423 190.001 423 c 0
 159.334 423 133.667 433.333 113 454 c 0
 92.333 474.667 82 504.667 82 544 c 0
EndSplineSet
Validated: 524297
EndChar

StartChar: one
Encoding: 16 61489 16
Width: 319
LayerCount: 2
Fore
SplineSet
136 363 m 1
 136 723.001 l 1
 111 723.001 l 1
 104.333 708.334 92.333 692.334 75 675.001 c 0
 53 654.334 33.333 640.334 16 633.001 c 1
 16 591.001 l 1
 25.333 592.334 39.666 599.667 58.999 613 c 1
 77.666 624.333 90.333 634.333 97 643 c 1
 97 363 l 1
 136 363 l 1
300 363.001 m 1
 300.001 723.001 l 1
 275.001 723.001 l 1
 267.001 707.001 255.001 691.001 239.001 675.001 c 0
 220.334 657.001 200.667 643.001 180 633.001 c 1
 180 591.001 l 1
 189.333 593.668 203.333 601.001 222 613.001 c 0
 238 623.001 251 633.001 261 643.001 c 1
 261 363.001 l 1
 300 363.001 l 1
EndSplineSet
Validated: 524297
EndChar

StartChar: two
Encoding: 17 61490 17
Width: 255
LayerCount: 2
Fore
SplineSet
231 406 m 1
 74 406.001 l 1
 77.333 413.334 83 421.334 91 430.001 c 0
 93 431.334 95.667 433.334 99 436.001 c 2
 109 446.001 l 2
 111.667 448.668 121.334 457.668 138.001 473.001 c 0
 165.334 499.668 184.667 520.668 196 536.001 c 0
 206.667 550.001 215 564.668 221 580.001 c 0
 225.667 594.001 228 608.001 228 622.001 c 0
 228 650.668 219 674.668 201 694.001 c 0
 183.667 713.334 160 723.001 130 723.001 c 0
 100 723.001 76 714.334 58 697.001 c 0
 40 679.665 30 654.332 28 621.001 c 1
 66 613.001 l 1
 66 634.334 72 650.667 84 662 c 1
 94 674 109 680 129 680 c 0
 145.667 680 160.334 674.333 173.001 663 c 1
 183.668 649.664 189.001 635.331 189.001 620 c 0
 189.001 602 183.001 585 171.001 569 c 0
 159.001 551.667 135.668 526.667 101.001 494 c 0
 82.334 476 65.667 458.333 51 441 c 1
 37 422.333 28.333 406.666 25 394 c 0
 21.667 381.333 20 371 20 363 c 1
 231 363 l 1
 231 406 l 1
EndSplineSet
Validated: 524297
EndChar

StartChar: three
Encoding: 18 61491 18
Width: 405
LayerCount: 2
Fore
SplineSet
142 363 m 1
 142.001 723 l 1
 117.001 723 l 1
 109.001 707 97.001 691 81.001 675 c 0
 62.334 657 42.667 643 22 633 c 1
 22 591 l 1
 31.333 593.667 45.333 601 64 613 c 0
 80 623 93 633 103 643 c 1
 103 363 l 1
 142 363 l 1
175.001 461 m 1
 177.001 431 187.338 406.668 206.005 388.001 c 0
 225.338 368.668 248.671 359.001 276.004 359.001 c 0
 306.671 359.001 332.004 370.001 352.004 392.001 c 0
 372.004 414.001 382.004 441.001 382.004 473.001 c 0
 382.004 495.001 376.671 514.668 366.004 532.001 c 1
 354.004 546.668 338.671 556.668 320.004 562.001 c 1
 334.004 568.668 345.337 578.668 354.004 592.001 c 0
 361.337 604.001 365.004 617.668 365.004 633.001 c 0
 365.004 648.334 361.004 663.001 353.004 677.001 c 0
 347.004 689.001 336.004 700.334 320.004 711.001 c 1
 306.004 719.001 290.337 723.001 273.004 723.001 c 0
 248.337 723.001 227.67 714.668 211.003 698.001 c 0
 192.336 680.668 181.336 657.668 178.003 629.001 c 1
 217.003 621.001 l 1
 218.336 639.001 224.669 653.668 236.002 665.001 c 0
 246.002 675.001 258.669 680.001 274.002 680.001 c 0
 288.669 680.001 301.336 675.334 312.003 666.001 c 1
 321.336 655.334 326.003 643.334 326.003 630.001 c 0
 326.003 611.334 319.67 598.334 307.003 591.001 c 0
 293.67 582.334 279.003 578.001 263.003 578.001 c 2
 260.003 578.001 l 1
 257.003 578.001 l 1
 252.003 535.001 l 1
 265.337 538.334 274.67 540.001 280.002 540.001 c 0
 298.002 540.001 313.335 533.668 326.002 521.001 c 0
 338.002 509.001 344.002 493.001 344.002 473.001 c 0
 344.002 452.333 337.669 435.666 325.002 423 c 1
 313.002 409 297.002 402 277.002 402 c 0
 260.335 402 246.668 407.333 236.001 418 c 1
 224.001 428 216.668 445 214.001 469 c 1
 175.001 461 l 1
EndSplineSet
Validated: 524297
EndChar

StartChar: four
Encoding: 19 61492 19
Width: 262
LayerCount: 2
Fore
SplineSet
166 369 m 1
 205 369 l 1
 205 455 l 1
 243 455 l 1
 243 498 l 1
 205 498 l 1
 205 724 l 1
 173 724 l 1
 22 498 l 1
 22 455 l 1
 166 455 l 1
 166 369 l 1
166 498 m 1
 69 498 l 1
 166 643 l 1
 166 498 l 1
EndSplineSet
Validated: 9
EndChar

StartChar: five
Encoding: 20 61493 20
Width: 243
LayerCount: 2
Fore
SplineSet
19 466 m 1
 20.333 434 30.6689 409.335 50.002 392.002 c 1
 67.335 373.335 90.668 364.002 120.001 364.002 c 0
 154.001 364.002 181.334 378.335 202.001 407.002 c 0
 218.668 431.669 227.001 459.669 227.001 491.002 c 0
 227.001 523.002 217.668 550.669 199.001 574.002 c 1
 180.334 595.335 157.667 606.002 131 606.002 c 0
 111 606.002 91.667 597.669 73 581.002 c 1
 90 680.002 l 1
 209 680.002 l 1
 209 723.002 l 1
 58 723.002 l 1
 26 540.002 l 1
 65 532.002 l 1
 69 541.335 76.333 548.668 87 554.001 c 0
 97 560.001 108.333 563.001 121 563.001 c 0
 143 563.001 159.667 556.334 171 543.001 c 0
 182.333 528.334 188 510.001 188 488.001 c 0
 188 463.333 181.667 443.666 169 429 c 0
 156.333 414.333 140 407 120 407 c 0
 102.667 407 88.667 412.333 78 423 c 0
 66 434.333 59.333 450 58 470 c 1
 19 466 l 1
EndSplineSet
Validated: 524297
EndChar

StartChar: six
Encoding: 21 61494 21
Width: 259
LayerCount: 2
Fore
SplineSet
233 629 m 1
 229 657.667 219.004 680.667 203.004 698 c 0
 186.337 714.667 165.67 723 141.003 723 c 0
 107.003 723 80.0029 709.333 60.0029 682 c 0
 36.6699 650 25.0029 600 25.0029 532 c 0
 25.0029 470.667 35.3359 426.667 56.0029 400 c 0
 76.0029 373.333 103.336 360 138.003 360 c 0
 157.336 360 174.669 365 190.002 375 c 0
 206.002 384.333 218.002 399 226.002 419 c 1
 235.335 438.333 240.002 459.333 240.002 482 c 0
 240.002 515.333 230.335 543.333 211.002 566 c 0
 192.335 587.333 169.668 598 143.001 598 c 0
 127.668 598 113.001 594 99.001 586 c 0
 83.668 577.333 72.001 565.333 64.001 550 c 1
 64.001 583.333 67.668 610 75.001 630 c 0
 80.334 644.667 89.667 657.667 103 669 c 1
 114.333 676.333 126 680 138 680 c 0
 154 680 167.667 674 179 662 c 1
 184.333 654 189.333 641.667 194 625 c 1
 233 629 l 1
64.0039 483 m 0
 64.0039 504.333 70.6729 521.667 84.0059 535 c 0
 97.3389 548.333 113.672 555 133.005 555 c 0
 153.005 555 169.338 548.333 182.005 535 c 0
 194.672 522.333 201.005 504 201.005 480 c 0
 201.005 455.333 194.672 436.333 182.005 423 c 0
 169.338 409.667 153.671 403 135.004 403 c 0
 121.004 403 109.004 406.333 99.0039 413 c 1
 87.6709 419 79.0039 428.667 73.0039 442 c 0
 67.0039 454 64.0039 467.667 64.0039 483 c 0
EndSplineSet
Validated: 524297
EndChar

StartChar: seven
Encoding: 22 61495 22
Width: 253
LayerCount: 2
Fore
SplineSet
25 681 m 1
 182.999 681.003 l 1
 161.666 653.668 143.333 622.335 128 587.003 c 0
 109.333 546.336 96.333 507.669 89 471.002 c 0
 79 426.335 74 392.335 74 369.002 c 1
 113 369.002 l 1
 115 403.669 120 436.669 128 468.002 c 1
 135.333 503.335 150.333 544.668 173 592.001 c 0
 192.333 631.334 212.333 663.667 233 689 c 1
 233 724 l 1
 25 724 l 1
 25 681 l 1
EndSplineSet
Validated: 524297
EndChar

StartChar: eight
Encoding: 23 61496 23
Width: 850
LayerCount: 2
Fore
SplineSet
189 0 m 1
 228 -0.00195312 l 1
 228 358.998 l 1
 189 358.998 l 1
 189 222.998 l 1
 182.333 232.998 173.333 242.998 162 252.998 c 1
 150.667 260.998 138 264.998 124 264.998 c 0
 104.667 264.998 87 259.331 71 247.998 c 0
 55.667 237.998 44 221.998 36 199.998 c 0
 28 178.665 24 155.332 24 129.999 c 0
 24 102.666 28.333 79.3331 37 60.0001 c 1
 45 37.3331 57 21.3331 73 12.0001 c 1
 87 1.33305 104 -3.99995 124 -3.99995 c 0
 153.333 -3.99995 175 11.0001 189 41.0001 c 1
 189 5.34058e-05 l 1
 189 0 l 1
63 129.998 m 0
 63 161.331 69.002 184.665 81.002 199.998 c 0
 92.335 214.665 107.002 221.998 125.002 221.998 c 0
 142.335 221.998 157.668 214.331 171.001 198.998 c 1
 183.001 182.998 189.001 158.665 189.001 125.998 c 0
 189.001 95.998 183.001 73.998 171.001 59.998 c 0
 158.334 45.3311 143.667 37.998 127 37.998 c 0
 109 37.998 94 45.665 82 60.998 c 0
 69.333 75.665 63 98.665 63 129.998 c 0
292.002 315.999 m 1
 331.002 315.999 l 1
 331.002 358.999 l 1
 292.002 358.999 l 1
 292.002 315.999 l 1
292.002 -0.000976562 m 1
 331.002 -0.000976562 l 1
 331.002 260.999 l 1
 292.002 260.999 l 1
 292.002 -0.000976562 l 1
390.002 -0.000976562 m 1
 429.003 -0.000976562 l 1
 429.003 130.999 l 2
 429.003 154.332 431.003 171.999 435.003 183.999 c 0
 439.003 195.999 445.67 205.332 455.003 211.999 c 0
 463.67 218.666 474.003 221.999 486.003 221.999 c 0
 500.67 221.999 511.003 216.999 517.003 206.999 c 0
 523.67 197.665 527.003 183.332 527.003 163.999 c 2
 527.003 -0.000976562 l 1
 566.003 -0.000976562 l 1
 566.003 146.999 l 2
 566.003 171.666 571.336 190.666 582.003 203.999 c 0
 592.003 215.999 605.67 221.999 623.003 221.999 c 0
 629.675 221.999 637.342 219.666 646.004 214.999 c 1
 652.681 208.332 657.348 201.999 660.004 195.999 c 0
 662.671 187.999 664.004 175.666 664.004 158.999 c 2
 664.004 -0.000976562 l 1
 703.004 -0.000976562 l 1
 703.004 176.999 l 2
 703.004 204.999 696.671 226.999 684.004 242.999 c 0
 671.337 257.666 653.67 264.999 631.003 264.999 c 0
 601.67 264.999 578.003 247.999 560.003 213.999 c 1
 553.336 231.332 545.669 243.999 537.002 251.999 c 1
 525.002 260.666 511.335 264.999 496.002 264.999 c 0
 482.002 264.999 468.669 260.666 456.002 251.999 c 1
 443.335 241.999 434.335 230.666 429.002 217.999 c 1
 429.002 260.999 l 1
 390.002 260.999 l 1
 390.002 -0.000976562 l 1
774.003 -0.000976562 m 1
 812.003 -0.000976562 l 1
 812.003 41.999 l 1
 774.003 41.999 l 1
 774.003 -0.000976562 l 1
EndSplineSet
Validated: 524297
EndChar

StartChar: nine
Encoding: 24 61497 24
Width: 259
LayerCount: 2
Fore
SplineSet
30 453 m 1
 32 424.333 41.335 401.335 58.002 384.002 c 0
 72.002 368.002 92.002 360.002 118.002 360.002 c 0
 141.335 360.002 161.668 367.002 179.001 381.002 c 0
 195.668 394.335 208.668 415.002 218.001 443.002 c 1
 226.668 473.002 231.001 509.002 231.001 551.002 c 0
 231.001 592.335 226.334 625.668 217.001 651.001 c 1
 207.668 673.001 194.668 690.668 178.001 704.001 c 0
 160.668 716.668 142.001 723.001 122.001 723.001 c 0
 92.668 723.001 69.001 712.001 51.001 690.001 c 0
 32.334 666.001 23.001 636.668 23.001 602.001 c 0
 23.001 565.334 32.001 537.001 50.001 517.001 c 1
 66.668 495.668 89.001 485.001 117.001 485.001 c 0
 132.334 485.001 146.667 489.334 160 498.001 c 1
 173.333 505.334 184 516.667 192 532 c 1
 192 527 l 1
 192 523 l 2
 192 504.333 190 487 186 471 c 0
 184 459 179.667 446.333 173 433 c 1
 166.333 422.333 159 415 151 411 c 0
 140.333 405.667 130 403 120 403 c 0
 106 403 94.667 407.333 86 416 c 0
 76 425.333 70.333 439 69 457 c 1
 30 453 l 1
192.002 603.002 m 0
 192.002 579.669 186.002 561.002 174.002 547.002 c 1
 161.335 534.335 146.002 528.002 128.002 528.002 c 0
 108.002 528.002 92.002 534.669 80.002 548.002 c 0
 68.002 560.002 62.002 577.002 62.002 599.002 c 0
 62.002 623.002 68.335 642.669 81.002 658.002 c 0
 94.335 672.669 110.335 680.002 129.002 680.002 c 0
 147.002 680.002 162.002 673.002 174.002 659.002 c 0
 186.002 645.002 192.002 626.335 192.002 603.002 c 0
EndSplineSet
Validated: 524297
EndChar

StartChar: colon
Encoding: 25 61498 25
Width: 1180
LayerCount: 2
Fore
SplineSet
21 -3 m 1
 85.001 -3.00098 l 1
 85.001 215.999 l 2
 85.001 252.666 88.668 281.999 96.001 303.999 c 1
 101.334 324.666 112.667 340.333 130 351 c 1
 144.667 361.667 161.667 367 181 367 c 0
 205.667 367 223 359 233 343 c 0
 243.667 325.667 249 301.667 249 271 c 2
 249 -2.99997 l 1
 314 -2.99997 l 1
 314 242 l 2
 314 286 323 317.667 341 337 c 0
 359 357 381.667 367 409 367 c 0
 423.667 367 436.667 363 448 355 c 0
 457.333 349 465.333 339 472 325 c 1
 476 313 478 292.333 478 263 c 2
 478 -2.99997 l 1
 542 -2.99997 l 1
 542 293 l 2
 542 341 531.667 377.667 511 403 c 1
 489.667 427 460.334 439 423.001 439 c 0
 373.668 439 334.001 411 304.001 355 c 1
 295.334 381 282.667 401.667 266 417 c 1
 246.667 431.667 224 439 198 439 c 0
 173.333 439 151.333 431.667 132 417 c 0
 112 403 96.333 384 85 360 c 1
 85 432 l 1
 21 432 l 1
 21 -3 l 1
514.001 673.999 m 1
 673.001 674 l 1
 653.001 648 634.334 616.333 617.001 579 c 0
 598.334 538.333 585.334 499.666 578.001 462.999 c 0
 568.668 419.666 564.001 385.666 564.001 360.999 c 1
 602.001 360.999 l 1
 604.001 396.999 609.001 429.999 617.001 459.999 c 0
 627.001 501.999 642.334 543.666 663.001 584.999 c 0
 681.001 622.999 700.668 655.332 722.001 681.999 c 1
 722.001 716.999 l 1
 514.001 716.999 l 1
 514.001 673.999 l 1
680.001 356 m 1
 716.001 356 l 1
 811.001 715 l 1
 775.001 715 l 1
 680.001 356 l 1
827.001 717 m 1
 827.001 358 l 1
 839.001 370 l 1
 847.001 378 l 2
 851.001 383.336 855.334 387.669 860.001 390.999 c 0
 860.694 391.666 862.361 392.999 865.002 394.999 c 0
 867.002 396.332 869.002 397.999 871.002 399.999 c 0
 872.335 400.666 874.668 402.333 878.001 405 c 0
 880.668 407.667 884.001 410.667 888.001 414 c 0
 901.334 425.335 912.334 435.668 921.001 445 c 0
 930.334 456.334 935.001 468.667 935.001 482 c 0
 935.001 492 930.668 502.667 922.001 514 c 1
 910.668 522.667 901.001 527 893.001 527 c 0
 883.001 527 874.668 525.333 868.001 522 c 0
 858.001 518 850.334 514 845.001 510 c 1
 845.001 717 l 1
 827.001 717 l 1
845.001 394 m 1
 845.002 484 l 2
 845.002 487.333 848.335 492.333 855.002 499 c 1
 861.675 503.667 868.342 506 875.002 506 c 1
 879.669 504.667 884.669 501.667 890.002 497 c 1
 894.002 491.667 896.002 485 896.002 477 c 0
 896.002 463 892.002 451 884.002 441 c 0
 881.335 437 876.002 430.333 868.002 421 c 0
 857.335 409 849.668 400 845.001 394 c 1
954.002 459 m 1
 956.002 426.333 966.003 401.666 984.003 385 c 0
 1002.67 366.333 1026 357 1054 357 c 0
 1088 357 1115.34 371.333 1136 400 c 0
 1152.67 423.333 1161 451.333 1161 484 c 0
 1161 518 1151.67 545.667 1133 567 c 0
 1114.34 588.333 1092 599 1066 599 c 0
 1045.34 599 1026 591 1008 575 c 1
 1024 674 l 1
 1143 674 l 1
 1143 717 l 1
 992.003 717 l 1
 961.003 533 l 1
 999.003 525 l 1
 1006.34 535 1014 542.667 1022 548 c 0
 1030 553.333 1041.34 556 1056 556 c 0
 1078 556 1094.34 549.333 1105 536 c 0
 1116.34 523.333 1122 505 1122 481 c 0
 1122 455.667 1116 436 1104 422 c 0
 1091.33 407.333 1074.66 400 1054 400 c 0
 1037.34 400 1023.67 405.333 1013 416 c 1
 1000.33 425.333 993.335 441 992.002 463 c 1
 954.002 459 l 1
EndSplineSet
Validated: 524297
EndChar

StartChar: less
Encoding: 26 61500 26
Width: 140
LayerCount: 2
Fore
SplineSet
24 724 m 1
 23.998 360.999 l 1
 29.998 368.999 35.665 375.666 40.998 380.999 c 0
 46.3311 387.666 50.3311 392.333 52.998 395 c 0
 57.665 399.667 62.332 404 66.999 408 c 2
 77.999 418 l 2
 87.999 426 97.999 436.333 107.999 449 c 1
 116.666 458.333 120.999 471 120.999 487 c 0
 120.999 498.333 116.999 509 108.999 519 c 1
 100.332 527.667 91.332 532 81.999 532 c 0
 73.332 532 66.332 530.333 60.999 527 c 0
 51.666 523 44.333 518.667 39 514 c 1
 39 724 l 1
 24 724 l 1
38.998 396.999 m 1
 38.998 488.999 l 2
 38.998 492.332 41.998 496.999 47.998 502.999 c 1
 55.998 507.666 62.3311 509.999 66.998 509.999 c 1
 70.998 508.666 75.665 505.666 80.998 500.999 c 1
 84.3311 494.33 85.998 487.663 85.998 480.998 c 0
 85.998 468.331 82.3311 456.331 74.998 444.998 c 0
 72.998 442.331 70.665 438.998 67.998 434.998 c 0
 65.3311 430.998 62.998 427.331 60.998 423.998 c 0
 58.3311 420.665 54.998 416.332 50.998 410.999 c 0
 46.3311 405.666 42.3311 400.999 38.998 396.999 c 1
EndSplineSet
Validated: 524297
EndChar

StartChar: equal
Encoding: 27 61501 27
Width: 130
LayerCount: 2
Fore
SplineSet
24 443 m 1
 95 462 l 1
 95 354 l 1
 109 354 l 1
 109 633 l 1
 38 613 l 1
 38 723 l 1
 24 723 l 1
 24 443 l 1
38 564 m 1
 95 579 l 1
 95 513 l 1
 38 497 l 1
 38 564 l 1
EndSplineSet
Validated: 9
EndChar

StartChar: greater
Encoding: 28 61502 28
Width: 143
LayerCount: 2
Fore
SplineSet
89 513 m 1
 57 505 l 1
 57 577 l 1
 89 585 l 1
 89 513 l 1
42 499 m 1
 22 493 l 1
 22 440 l 1
 42 446 l 1
 42 350 l 1
 57 350 l 1
 57 450 l 1
 89 459 l 1
 89 367 l 1
 104 367 l 1
 104 464 l 1
 126 470 l 1
 126 522 l 1
 104 517 l 1
 104 589 l 1
 126 596 l 1
 126 647 l 1
 104 641 l 1
 104 737 l 1
 89 737 l 1
 89 637 l 1
 57 629 l 1
 57 725 l 1
 42 725 l 1
 42 624 l 1
 22 618 l 1
 22 567 l 1
 42 573 l 1
 42 499 l 1
EndSplineSet
Validated: 9
EndChar

StartChar: A
Encoding: 29 61505 29
Width: 667
LayerCount: 2
Fore
SplineSet
22 -2 m 1
 115 -2 l 1
 193 229 l 1
 476 229 l 1
 554 -2 l 1
 646 -2 l 1
 373 734 l 1
 295 734 l 1
 22 -2 l 1
223 317 m 1
 296 511 l 1
 313.333 563 326 608 334 646 c 1
 336 638 339 629 343 619 c 0
 343 618.333 344 615.333 346 610 c 2
 354 587 l 2
 356.667 578.333 361 565.333 367 548 c 0
 371 534 376 520 382 506 c 1
 445 317 l 1
 223 317 l 1
EndSplineSet
Validated: 524297
EndChar

StartChar: B
Encoding: 30 61506 30
Width: 548
LayerCount: 2
Fore
SplineSet
22 2 m 1
 273.001 2.00098 l 2
 315.001 2.00098 350.668 6.00098 380.001 14.001 c 0
 409.334 21.334 433.334 33.334 452.001 50.001 c 0
 472.001 67.334 488.334 90.334 501.001 119.001 c 0
 513.668 150.334 520.001 182.334 520.001 215.001 c 0
 520.001 255.668 510.334 293.001 491.001 327.001 c 1
 467.001 359.668 438.668 382.001 406.001 394.001 c 1
 437.334 411.335 460.334 433.668 475.001 461 c 0
 491.001 489 499.001 518.667 499.001 550 c 0
 499.001 582.667 490.001 615 472.001 647 c 1
 453.333 677 428.666 700 398 716 c 1
 362.667 731.333 321.667 739 275 739 c 2
 22 739 l 1
 22 2 l 1
109.001 426.001 m 1
 109.001 651.002 l 1
 246.001 651.002 l 2
 290.668 651.002 325.001 647.002 349.001 639.002 c 1
 369.001 631.002 384.334 618.335 395.001 601.002 c 0
 406.334 582.335 412.001 560.668 412.001 536.001 c 0
 412.001 509.334 406.001 487.667 394.001 471.001 c 0
 381.334 453.001 364.001 440.668 342.001 434.001 c 0
 323.334 428.668 294.667 426.001 256.001 426.001 c 2
 109.001 426.001 l 1
109.001 90.002 m 1
 108.999 338.002 l 1
 266.999 338.002 l 2
 306.333 338.002 339.666 334.002 366.999 326.002 c 1
 389.666 316.002 406.333 302.002 417 284.002 c 1
 427.667 263.335 433 240.002 433 214.002 c 0
 433 190.669 428.667 170.002 420 152.002 c 0
 412.667 136.002 401.334 122.669 386.001 112.002 c 0
 373.334 103.335 356.334 97.002 335.001 93.002 c 0
 323.668 91.002 303.668 90.002 275.001 90.002 c 2
 109.001 90.002 l 1
EndSplineSet
Validated: 524297
EndChar

StartChar: C
Encoding: 31 61507 31
Width: 619
LayerCount: 2
Fore
SplineSet
509 263 m 1
 497.667 203.667 474.667 158.332 440 126.999 c 0
 406 96.999 364.667 81.999 316 81.999 c 0
 274.667 81.999 238 93.332 206 115.999 c 1
 170.667 135.999 145.334 169.666 130.001 216.999 c 1
 113.334 260.999 105.001 313.666 105.001 374.999 c 0
 105.001 420.999 112.001 466.666 126.001 511.999 c 1
 137.334 554.667 161.001 590.334 197.001 619 c 0
 231.001 645 272.668 658 322.001 658 c 0
 362.001 658 397.668 646.333 429.001 623 c 1
 456.334 600.333 478.334 562.333 495.001 509 c 1
 581.001 531 l 1
 563.001 599.667 532.334 652.667 489.001 690 c 0
 444.334 727.333 389.667 746 325.001 746 c 0
 268.334 746 216.001 731.333 168.001 702 c 0
 118.668 672 81.668 629.333 57.001 574 c 1
 31.668 512.667 19.001 446.334 19.001 375.001 c 0
 19.001 305.668 30.668 240.668 54.001 180.001 c 1
 76.001 119.334 109.334 73.001 154.001 41.001 c 0
 198.001 9.66801 255.334 -5.99899 326.001 -5.99899 c 0
 392.668 -5.99899 450.001 14.668 498.001 56.001 c 0
 545.334 97.334 577.667 158.667 595 240 c 1
 509 263 l 1
EndSplineSet
Validated: 524297
EndChar

StartChar: D
Encoding: 32 61508 32
Width: 609
LayerCount: 2
Fore
SplineSet
26 2 m 1
 264.999 2 l 2
 304.999 2 340.666 6 371.999 14 c 0
 400.666 21.333 426.999 33.666 450.999 50.999 c 1
 473.666 68.999 493.666 91.332 510.999 117.999 c 1
 528.999 142.666 543.999 178.333 555.999 225 c 1
 568.666 266.333 574.999 316 574.999 374 c 0
 574.999 435.334 565.999 493.667 547.999 549 c 1
 530.666 597.668 504.666 639.335 469.999 674 c 1
 443.332 698.669 410.999 716.336 372.999 727 c 0
 343.666 735 304.333 739 255 739 c 2
 26 739 l 1
 26 2 l 1
112.999 90 m 1
 112.997 651.003 l 1
 253.997 651.003 l 2
 304.664 651.003 342.997 645.67 368.997 635.003 c 1
 400.997 620.336 428.997 592.669 452.997 552.002 c 1
 476.33 508.002 487.997 449.002 487.997 375.002 c 0
 487.997 322.335 481.997 275.002 469.997 233.002 c 0
 458.664 196.335 442.331 165.668 420.998 141.001 c 0
 405.665 124.334 385.332 111.667 359.999 103 c 0
 333.999 94.333 299.332 90 255.999 90 c 2
 112.999 90 l 1
EndSplineSet
Validated: 524297
EndChar

StartChar: E
Encoding: 33 61509 33
Width: 536
LayerCount: 2
Fore
SplineSet
22 0 m 1
 512 0 l 1
 512 88 l 1
 108 88 l 1
 108 336 l 1
 476 336 l 1
 476 424 l 1
 108 424 l 1
 108 648 l 1
 497 648 l 1
 497 736 l 1
 22 736 l 1
 22 0 l 1
EndSplineSet
Validated: 9
EndChar

StartChar: F
Encoding: 34 61510 34
Width: 500
LayerCount: 2
Fore
SplineSet
22 0 m 1
 108 0 l 1
 108 336 l 1
 412 336 l 1
 412 424 l 1
 108 424 l 1
 108 648 l 1
 469 648 l 1
 469 736 l 1
 22 736 l 1
 22 0 l 1
EndSplineSet
Validated: 9
EndChar

StartChar: G
Encoding: 35 61511 35
Width: 667
LayerCount: 2
Fore
SplineSet
356 285 m 1
 550.999 285.004 l 1
 550.999 151.004 l 1
 528.332 130.337 500.332 113.67 466.999 101.003 c 0
 426.332 85.0029 388.332 77.0029 352.999 77.0029 c 0
 309.666 77.0029 267.333 87.6699 226 109.003 c 0
 185.333 129.003 155.333 160.67 136 204.003 c 1
 114.667 246.67 104 300.337 104 365.004 c 0
 104 414.338 112.667 462.671 130 510.004 c 0
 138.667 535.337 153 559.337 173 582.004 c 0
 191 603.337 215 620.67 245 634.003 c 0
 275 646.67 310.333 653.003 351 653.003 c 0
 386.334 653.003 417.667 647.003 445 635.003 c 0
 473 622.336 494.667 605.669 510 585.002 c 1
 525.333 562.335 538 533.668 548 499.001 c 1
 627 523.001 l 1
 614.333 573.001 597.333 613.334 576 644.001 c 1
 555.333 671.334 524.666 695.334 483.999 716.001 c 1
 443.999 732.668 400.332 741.001 352.999 741.001 c 0
 283.666 741.001 224.666 726.001 175.999 696.001 c 1
 125.332 667.334 85.999 622.001 57.999 560.001 c 0
 31.332 499.334 17.999 433.334 17.999 362.001 c 0
 17.999 288.001 31.666 223.334 58.999 168.001 c 1
 85.666 110.001 125.999 65.3341 179.999 34.0011 c 1
 233.999 5.3341 293.999 -9.3329 359.999 -9.9999 c 0
 408.666 -9.9999 456.333 -0.666892 503 18.0001 c 1
 546.333 34.0001 591.333 62.3331 638 103 c 1
 638 374 l 1
 356 374 l 1
 356 285 l 1
EndSplineSet
Validated: 524297
EndChar

StartChar: H
Encoding: 36 61512 36
Width: 585
LayerCount: 2
Fore
SplineSet
24 -4 m 1
 112 -4 l 1
 112 339 l 1
 457 339 l 1
 457 -4 l 1
 544 -4 l 1
 544 732 l 1
 457 732 l 1
 457 428 l 1
 112 428 l 1
 112 732 l 1
 24 732 l 1
 24 -4 l 1
EndSplineSet
Validated: 9
EndChar

StartChar: I
Encoding: 37 61513 37
Width: 783
LayerCount: 2
Fore
SplineSet
547 692 m 1
 547 9 l 1
 569 31 l 2
 575.667 38.333 580.667 43.666 584 46.999 c 2
 600 62.999 l 1
 609 71.999 l 2
 615.672 77.999 623.339 84.666 632.001 91.999 c 0
 633.334 92.666 636.001 94.666 640.001 97.999 c 0
 645.334 102.666 652.667 108.666 662 115.999 c 0
 688 137.999 709 157.332 725 173.999 c 1
 743 194.666 752 218.333 752 245 c 0
 752 265.667 743.667 286 727 306 c 1
 709 322.667 690.333 331 671 331 c 0
 655 331 639.667 328 625 322 c 0
 605.667 314 590.667 306 580 298 c 1
 580 692 l 1
 547 692 l 1
580 77 m 1
 580 249.001 l 2
 580 256.335 587 265.668 601 277 c 0
 611 286.333 621.333 291 632 291 c 1
 634 290 l 1
 638 290 l 1
 648.672 288.667 658.339 283 667.001 273 c 1
 675.001 261 679.001 248.333 679.001 235 c 0
 679.001 211.667 671.001 189 655.001 167 c 0
 646.334 154.333 639.667 145 635 139 c 0
 623 125 604.667 104.333 580 77 c 1
22 -3.99902 m 1
 273.001 -3.99805 l 2
 313.668 -3.99805 348.668 -0.33105 378.001 7.00195 c 0
 408.668 15.6689 433.001 27.669 451.001 43.0019 c 1
 471.668 63.0019 487.668 86.002 499.001 112.002 c 1
 512.334 146.002 519.001 178.002 519.001 208.002 c 0
 519.001 247.335 509.001 284.668 489.001 320.001 c 1
 467.001 351.334 438.668 374.001 404.001 388.001 c 1
 433.334 402.668 456.667 424.668 474 454.001 c 1
 489.333 482.001 497 511.668 497 543.001 c 0
 497 574.334 488.333 607.001 471 641.001 c 1
 451.667 671.001 427 693.668 397 709.001 c 1
 363 724.334 322 732.001 274 732.001 c 2
 22 732.001 l 1
 22 -3.99902 l 1
108.001 419.002 m 1
 108 644.002 l 1
 244 644.002 l 2
 291.333 644.002 326 640.335 348 633.002 c 1
 368 623.669 383.667 611.002 395 595.002 c 1
 405 575.669 410 553.669 410 529.002 c 0
 410 501.002 404.333 479.335 393 464.002 c 0
 379.667 445.335 362.334 433.335 341.001 428.002 c 1
 323.001 422.002 294.334 419.002 255.001 419.002 c 2
 108.001 419.002 l 1
108 83.002 m 1
 108 331.002 l 1
 266 331.002 l 2
 306 331.002 339 327.002 365 319.002 c 1
 386.333 310.335 403.333 296.335 416 277.002 c 1
 427.333 253.002 433 229.669 433 207.002 c 0
 433 185.002 428 164.669 418 146.002 c 1
 409.333 126.002 398 112.669 384 106.002 c 1
 369.333 96.002 352.666 89.335 334 86.002 c 0
 322.667 84.002 302.667 83.002 274 83.002 c 2
 108 83.002 l 1
EndSplineSet
Validated: 524297
EndChar

StartChar: K
Encoding: 38 61515 38
Width: 405
LayerCount: 2
Fore
SplineSet
97 503 m 1
 62 495 l 1
 62 567 l 1
 97 577 l 1
 97 503 l 1
45 490 m 1
 22 483 l 1
 22 430 l 1
 45 436 l 1
 45 341 l 1
 62 341 l 1
 62 440 l 1
 97 450 l 1
 97 357 l 1
 114 357 l 1
 114 454 l 1
 138 460 l 1
 138 513 l 1
 114 507 l 1
 114 580 l 1
 138 586 l 1
 138 637 l 1
 114 631 l 1
 114 727 l 1
 97 727 l 1
 97 627 l 1
 62 620 l 1
 62 715 l 1
 45 715 l 1
 45 616 l 1
 22 608 l 1
 22 557 l 1
 45 563 l 1
 45 490 l 1
180 454 m 1
 182.667 423.333 191.998 399.666 207.998 383 c 0
 223.998 365.667 244.998 357 270.998 357 c 0
 294.998 357 315.331 364.333 331.998 379 c 1
 349.333 392.333 362.666 413.333 371.998 442 c 1
 380.665 473.333 384.998 510.333 384.998 553 c 0
 384.998 595.667 380.331 630 370.998 656 c 0
 362.331 678.667 349.331 697 331.998 711 c 1
 314.665 723 295.332 729 273.999 729 c 0
 243.332 729 219.332 717.667 201.999 695 c 1
 181.999 671.667 171.999 641.667 171.999 605 c 0
 171.999 569 181.332 540 199.999 518 c 0
 218.666 496 241.666 485 268.999 485 c 0
 282.332 485 297.332 489.667 313.999 499 c 0
 326.666 507 336.999 518.667 344.999 534 c 1
 344.999 528 l 1
 344.999 524 l 2
 344.999 508 343.332 490.667 339.999 472 c 1
 335.33 454.667 330.663 441.667 325.999 433 c 0
 321.999 423.667 314.666 416 303.999 410 c 0
 293.999 404 283.332 401 271.999 401 c 0
 257.332 401 245.999 405.667 237.999 415 c 1
 226.666 424.334 220.333 438.667 219 458 c 1
 180 454 l 1
344.998 607 m 2
 344.998 606 l 2
 344.998 580.667 338.998 562 326.998 550 c 0
 313.665 536 297.998 529 279.998 529 c 0
 259.998 529 243.665 536 230.998 550 c 1
 218.331 561.333 211.998 579 211.998 603 c 0
 211.998 627 218.665 647 231.998 663 c 0
 243.998 677.667 260.331 685 280.998 685 c 0
 300.331 685 315.998 678 327.998 664 c 1
 339.331 648 344.998 629 344.998 607 c 2
EndSplineSet
Validated: 524297
EndChar

StartChar: L
Encoding: 39 61516 39
Width: 515
LayerCount: 2
Fore
SplineSet
474 358 m 1
 474 727 l 1
 448 727 l 1
 440.667 711 428.667 694.667 412 678 c 0
 392 659.333 372 645 352 635 c 1
 352 592 l 1
 362 595.333 376.333 603 395 615 c 0
 409.667 624.333 423 634.333 435 645 c 1
 435 358 l 1
 474 358 l 1
304 358 m 1
 303.999 727 l 1
 278.999 727 l 1
 272.332 712.333 259.999 696 241.999 678 c 1
 217.332 655.333 196.999 641 180.999 635 c 1
 180.999 592 l 1
 190.999 593.333 205.999 601 225.999 615 c 1
 244.666 626.333 257.333 636.333 264 645 c 1
 264 358 l 1
 304 358 l 1
96.999 503 m 1
 61.999 495 l 1
 61.999 567 l 1
 96.999 577 l 1
 96.999 503 l 1
44.999 490 m 1
 21.999 483 l 1
 21.999 430 l 1
 44.999 436 l 1
 44.999 341 l 1
 61.999 341 l 1
 61.999 440 l 1
 96.999 450 l 1
 96.999 357 l 1
 113.999 357 l 1
 113.999 454 l 1
 137.999 460 l 1
 137.999 513 l 1
 113.999 507 l 1
 113.999 580 l 1
 137.999 586 l 1
 137.999 637 l 1
 113.999 631 l 1
 113.999 727 l 1
 96.999 727 l 1
 96.999 627 l 1
 61.999 620 l 1
 61.999 715 l 1
 44.999 715 l 1
 44.999 616 l 1
 21.999 608 l 1
 21.999 557 l 1
 44.999 563 l 1
 44.999 490 l 1
EndSplineSet
Validated: 524297
EndChar

StartChar: M
Encoding: 40 61517 40
Width: 966
LayerCount: 2
Fore
SplineSet
45 362 m 1
 84 362 l 1
 84 494 l 2
 84 517.333 86 535 90 547 c 0
 94 559 100.667 568.333 110 575 c 0
 119.333 581.667 129.666 585 140.999 585 c 0
 154.999 585 165.666 580 172.999 570 c 0
 178.999 560.665 181.999 546.332 181.999 527.001 c 2
 181.999 362.001 l 1
 220.999 362.001 l 1
 220.999 510.001 l 2
 220.999 536.001 226.332 555.001 236.999 567.001 c 0
 247.666 579.001 261.333 585.001 278 585.001 c 0
 285.333 585.001 293.333 582.668 302 578.001 c 1
 308.667 572.001 313.334 565.668 316.001 559.001 c 0
 318.001 551.667 319.001 539.334 319.001 522.001 c 2
 319.001 362.001 l 1
 358.001 362.001 l 1
 358.001 540.001 l 2
 358.001 570.001 351.668 592.001 339.001 606.001 c 0
 326.334 620.668 308.667 628.001 286.001 628.001 c 0
 256.668 628.001 233.001 611.001 215.001 577.001 c 1
 209.001 594.334 201.334 606.667 192.001 614 c 0
 181.334 623.333 167.667 628 151 628 c 0
 136.333 628 123.333 623.667 112 615 c 0
 100 605.664 90.667 594.331 84 581 c 1
 84 624 l 1
 45 624 l 1
 45 362 l 1
558 398 m 1
 560 384 563.669 373.668 569.002 367.001 c 1
 608.002 367.001 l 1
 602.669 377.668 599.669 390.001 599.002 404.001 c 0
 597.669 419.334 597.002 445.001 597.002 481.001 c 2
 597.002 536.001 l 2
 597.002 552.001 596.335 564.668 595.002 574.001 c 0
 593.002 584.001 589.002 594.334 583.002 605.001 c 1
 576.335 612.334 567.002 618.667 555.002 624 c 0
 543.002 629.333 526.669 632 506.002 632 c 0
 485.334 632 467.667 629 453.001 623 c 0
 437.668 617 425.668 608.667 417.001 598 c 1
 409.001 586 403.334 571.333 400.001 554 c 1
 439.001 546 l 1
 442.338 561.333 448.671 572.666 458.001 579.999 c 0
 466.668 585.999 480.335 588.999 499.002 588.999 c 0
 519.002 588.999 534.002 584.666 544.002 575.999 c 0
 551.335 568.666 555.002 556.999 555.002 540.999 c 2
 555.002 536.999 l 1
 555.002 530.999 l 1
 539.669 524.999 516.002 519.999 484.002 515.999 c 0
 473.333 514.65 461.666 512.317 449.001 509 c 0
 438.334 505.667 429.001 501 421.001 495 c 0
 413.001 489 406.334 480.667 401.001 470 c 0
 395.668 459.333 393.001 448 393.001 436 c 0
 393.001 414.667 399.668 397 413.001 383 c 0
 427.001 369.667 446.668 363 472.001 363 c 0
 488.668 363 503.001 365.667 515.001 371 c 1
 528.334 375.667 542.667 384.667 558 398 c 1
555.002 488.001 m 1
 555.002 475 l 2
 555.002 461.667 552.669 450.334 548.002 441.001 c 0
 542.002 431.001 533.002 422.668 521.002 416.001 c 0
 509.002 409.334 495.335 406.001 480.002 406.001 c 0
 464.002 406.001 452.002 409.001 444.002 415.001 c 0
 436.002 421.001 432.002 429.001 432.002 439.001 c 0
 432.002 444.334 433.669 450.001 437.002 456.001 c 1
 442.339 461.334 447.672 465.001 453.002 467.001 c 0
 458.335 469.001 470.335 471.334 489.002 474.001 c 0
 520.335 478.001 542.335 482.668 555.002 488.001 c 1
652.002 681 m 1
 691.002 681 l 1
 691.002 724 l 1
 652.002 724 l 1
 652.002 681 l 1
602.002 268 m 1
 610.002 264.667 620.335 263 633.002 263 c 0
 655.002 263 670.669 271 680.002 287 c 0
 687.335 299 691.002 321 691.002 353 c 2
 691.002 626 l 1
 652.002 626 l 1
 652.002 358 l 2
 652.002 335.333 650.335 320.666 647.002 314 c 1
 642.335 308.667 636.335 306 629.002 306 c 0
 624.335 306 618.002 307 610.002 309 c 1
 602.002 268 l 1
733.002 679 m 1
 891.002 679.001 l 1
 871.002 652.334 852.669 621.001 836.002 585.001 c 0
 818.669 547.668 805.669 509.001 797.002 469.001 c 0
 787.669 429.001 782.669 395.001 782.002 367.001 c 1
 821.002 367.001 l 1
 823.002 401.668 828.002 434.668 836.002 466.001 c 0
 844.669 504.668 859.669 546.001 881.002 590.001 c 0
 901.669 631.334 921.669 663.667 941.002 687 c 1
 941.002 722 l 1
 733.002 722 l 1
 733.002 679 l 1
EndSplineSet
Validated: 524297
EndChar

StartChar: N
Encoding: 41 61518 41
Width: 512
LayerCount: 2
Fore
SplineSet
267 460 m 1
 268.334 429.333 278.668 404.667 298 386.001 c 0
 317.334 367.334 340.667 358.001 368 358.001 c 0
 398.667 358.001 424 369.001 444 391.001 c 0
 464.667 413.668 475 440.668 475 472.001 c 0
 475 494.002 469.333 513.335 458 530.001 c 0
 447.333 544.001 432.333 554.334 413 561.001 c 1
 427 569.001 438 579.001 446 591.001 c 0
 453.333 603.001 457 616.668 457 632.001 c 0
 457 647.334 453 662.001 445 676.001 c 0
 438.333 688.668 427.333 699.668 412 709.001 c 1
 395.333 717.668 379.666 722.001 365 722.001 c 0
 340.333 722.001 319.666 713.668 303 697.001 c 1
 284.333 680.334 273.666 657.334 271 628.001 c 1
 309 620.001 l 1
 311 638.001 317.667 652.668 329 664.001 c 0
 339 674.001 351.333 679.001 366 679.001 c 0
 381.333 679.001 394 674.001 404 664.001 c 0
 413.333 654.668 418 643.001 418 629.001 c 0
 418 610.334 411.667 597.334 399 590.001 c 0
 385.667 581.334 371 577.001 355 577.001 c 2
 352 577.001 l 1
 349 577.001 l 1
 344 534.001 l 1
 357.335 537.334 366.668 539.001 372 539.001 c 0
 390 539.001 405.333 532.668 418 520.001 c 0
 430 508.001 436 492.001 436 472.001 c 0
 436 451.333 429.667 434.666 417 422 c 1
 405 408 389 401 369 401 c 0
 353 401 339.333 406.333 328 417 c 0
 316 427 308.667 444 306 468 c 1
 267 460 l 1
247.001 362.001 m 1
 247.002 722.001 l 1
 222.002 722.001 l 1
 215.335 707.334 203.335 691.334 186.002 674.001 c 0
 164.002 653.334 144.335 639.334 127.002 632.001 c 1
 127.002 589.001 l 1
 138.335 593.001 152.668 600.668 170.001 612.001 c 0
 188.668 623.334 201.335 633.334 208.001 642.001 c 1
 208.001 362.001 l 1
 247.001 362.001 l 1
42.002 488.001 m 1
 48.002 504.001 57.667 511.998 71 511.998 c 0
 76.333 511.998 81.333 509.665 86 504.998 c 0
 90 499.665 92 493.332 92 485.999 c 0
 92 477.999 91 470.999 89 464.999 c 0
 87.667 461.666 84.334 455.333 79.001 446 c 0
 73.668 436.667 68.335 429.334 63.002 424.001 c 1
 57.002 416.001 50.002 407.001 42.002 397.001 c 1
 42.002 488.001 l 1
25 360.998 m 1
 26 360.999 l 1
 30 366.999 40.333 377.999 57 393.999 c 0
 57.667 394.666 59 395.666 61 396.999 c 2
 66 401.999 l 2
 70.667 406.666 74 409.666 76 410.999 c 0
 85.333 418.999 91.333 424.332 94 426.999 c 0
 97.333 429.666 103 434.999 111 442.999 c 1
 123 457.999 l 2
 127 461.999 130 466.666 132 471.999 c 1
 133.333 479.999 134 485.332 134 487.999 c 0
 134 501.334 129.667 512.334 121 520.999 c 0
 117.667 524.332 112.667 527.665 106 530.998 c 1
 98 532.331 92.333 532.998 89 532.998 c 0
 71.667 532.998 56 525.998 42 511.998 c 1
 42 721.998 l 1
 25 721.998 l 1
 25 360.998 l 1
EndSplineSet
Validated: 524297
EndChar

StartChar: O
Encoding: 42 61519 42
Width: 404
LayerCount: 2
Fore
SplineSet
99 502 m 1
 64 494 l 1
 64 565 l 1
 99 574 l 1
 99 502 l 1
48 490 m 1
 25 483 l 1
 25 431 l 1
 48 437 l 1
 48 344 l 1
 64 344 l 1
 64 441 l 1
 99 450 l 1
 99 360 l 1
 115 360 l 1
 115 454 l 1
 139 460 l 1
 139 512 l 1
 115 506 l 1
 115 577 l 1
 139 583 l 1
 139 633 l 1
 115 627 l 1
 115 721 l 1
 99 721 l 1
 99 623 l 1
 64 616 l 1
 64 709 l 1
 48 709 l 1
 48 612 l 1
 25 605 l 1
 25 555 l 1
 48 561 l 1
 48 490 l 1
170 463 m 1
 170.667 432.333 180.667 407.665 200 388.999 c 0
 218 370.999 241.333 361.999 270 361.999 c 0
 304 361.999 331.333 376.332 352 404.999 c 0
 368.667 427.666 377 455.333 377 488 c 0
 377 520.667 367.667 548.667 349 572 c 1
 330.333 593.333 308 604 282 604 c 0
 262 604 242.667 595.667 224 579 c 1
 240 678 l 1
 360 678 l 1
 360 721 l 1
 208 721 l 1
 177 537 l 1
 215 530 l 1
 220.333 538.667 228 546 238 552 c 1
 246 558 257.333 561 272 561 c 0
 293.333 561 310 554 322 540 c 0
 332.667 526.667 338 508.667 338 486 c 0
 338 460 332 440 320 426 c 0
 308 412 291.333 405 270 405 c 0
 252.667 405 239 410 229 420 c 1
 216.333 429.333 209.333 445 208 467 c 1
 170 463 l 1
EndSplineSet
Validated: 524297
EndChar

StartChar: P
Encoding: 43 61520 43
Width: 393
LayerCount: 2
Fore
SplineSet
42 488 m 1
 48 504 57.665 511.997 70.998 511.997 c 0
 76.3311 511.997 81.3311 509.664 85.998 504.997 c 0
 89.998 499.664 91.998 493.331 91.998 485.998 c 0
 91.998 477.998 90.998 470.998 88.998 464.998 c 0
 87.665 461.665 84.332 455.332 78.999 445.999 c 0
 73.666 436.666 68.333 429.333 63 424 c 1
 57 416 50 407 42 397 c 1
 42 488 l 1
24.998 360.997 m 1
 25.998 360.998 l 1
 29.998 366.998 40.3311 377.998 56.998 393.998 c 0
 57.665 394.665 58.998 395.665 60.998 396.998 c 2
 65.998 401.998 l 2
 70.665 406.665 73.998 409.665 75.998 410.998 c 0
 85.3311 418.998 91.3311 424.331 93.998 426.998 c 0
 97.3311 429.665 102.998 434.998 110.998 442.998 c 1
 122.998 457.998 l 2
 126.998 461.998 129.998 466.665 131.998 471.998 c 1
 133.331 479.998 133.998 485.331 133.998 487.998 c 0
 133.998 501.333 129.665 512.333 120.998 520.998 c 0
 117.665 524.331 112.665 527.664 105.998 530.997 c 1
 97.998 532.33 92.3311 532.997 88.998 532.997 c 0
 71.665 532.997 55.998 525.997 41.998 511.997 c 1
 41.998 721.997 l 1
 24.998 721.997 l 1
 24.998 360.997 l 1
162.998 462.998 m 1
 164.998 430.998 174.998 406.33 192.998 388.997 c 0
 210.998 370.997 234.331 361.997 262.998 361.997 c 0
 296.998 361.997 324.331 376.33 344.998 404.997 c 0
 361.665 427.664 369.998 455.664 369.998 488.997 c 0
 369.998 520.997 360.665 548.664 341.998 571.997 c 1
 323.331 593.33 300.998 603.997 274.998 603.997 c 0
 253.664 603.997 234.331 595.664 216.998 578.997 c 1
 232.998 677.997 l 1
 352.998 677.997 l 1
 352.998 720.997 l 1
 200.998 720.997 l 1
 169.998 537.997 l 1
 207.998 529.997 l 1
 213.331 538.664 220.998 545.997 230.998 551.997 c 1
 238.998 557.997 250.331 560.997 264.998 560.997 c 0
 286.332 560.997 302.665 554.33 313.998 540.997 c 0
 325.331 528.33 330.998 509.997 330.998 485.997 c 0
 330.998 460.664 324.998 440.997 312.998 426.997 c 0
 300.331 412.33 283.664 404.997 262.998 404.997 c 0
 245.665 404.997 231.998 409.997 221.998 419.997 c 0
 209.998 430.664 202.998 446.331 200.998 466.998 c 1
 162.998 462.998 l 1
EndSplineSet
Validated: 524297
EndChar

StartChar: Q
Encoding: 44 61521 44
Width: 390
LayerCount: 2
Fore
SplineSet
162 93 m 1
 164.667 63 174.001 40.001 190.001 24.001 c 0
 204.668 8.001 224.668 0.000999451 250.001 0.000999451 c 0
 272.668 0.000999451 292.668 7.001 310.001 21.001 c 0
 326.668 34.334 339.668 55.001 349.001 83.001 c 0
 357.668 107.668 362.001 143.668 362.001 191.001 c 0
 362.001 232.334 357.668 265.667 349.001 291 c 1
 339.668 314.333 326.668 332 310.001 344 c 0
 293.334 356.667 274.667 363 254.001 363 c 0
 225.334 363 201.667 352 183 330 c 0
 164.333 308 155 278.667 155 242 c 0
 155 206 164 177.667 182 157 c 0
 199.333 135.667 221.333 125 248 125 c 0
 263.333 125 278 129.333 292 137.999 c 0
 305.335 145.999 315.668 157.332 323 171.999 c 1
 323 169.999 323.333 168.332 324 166.999 c 2
 324 162.999 l 2
 324 144.332 322 126.999 318 110.999 c 0
 314.667 97.666 310 84.999 304 72.999 c 0
 299.333 63.666 292.333 56.333 283 51 c 0
 273 45.667 262.333 43 251 43 c 0
 237.667 43 226.667 47.333 218 56 c 1
 208.667 63.333 202.667 77 200 97 c 1
 162 93 l 1
323.001 243.001 m 2
 323.001 219.668 317.001 201.001 305.001 187.001 c 0
 293.001 174.334 277.668 168.001 259.001 168.001 c 0
 239.001 168.001 223.001 174.668 211.001 188.001 c 0
 199.001 200.668 193.001 217.668 193.001 239.001 c 0
 193.001 262.334 199.334 282.001 212.001 298.001 c 1
 225.334 312.668 241.334 320.001 260.001 320.001 c 0
 278.668 320.001 294.001 313.001 306.001 299.001 c 0
 313.334 289.001 319.001 281.668 323.001 277.001 c 1
 323.001 243.001 l 2
95.001 158.001 m 1
 59.001 150.001 l 1
 59.001 221.001 l 1
 95.001 230.001 l 1
 95.001 158.001 l 1
44.001 146.001 m 1
 21.001 139.001 l 1
 21.001 88.001 l 1
 44.001 93.001 l 1
 44.001 0.00100708 l 1
 59.001 0.00100708 l 1
 59.001 97.001 l 1
 95.001 106.001 l 1
 95.001 16.001 l 1
 110.001 16.001 l 1
 110.001 110.001 l 1
 135.001 116.001 l 1
 135.001 168.001 l 1
 110.001 162.001 l 1
 110.001 233.001 l 1
 135.001 239.001 l 1
 135.001 289.001 l 1
 110.001 283.001 l 1
 110.001 377.001 l 1
 95.001 377.001 l 1
 95.001 279.001 l 1
 59.001 272.001 l 1
 59.001 365.001 l 1
 44.001 365.001 l 1
 44.001 268.001 l 1
 21.001 261.001 l 1
 21.001 211.001 l 1
 44.001 217.001 l 1
 44.001 146.001 l 1
39.001 528.001 m 1
 45.668 544.001 55.334 552.001 68.001 552.001 c 0
 74.001 552.001 79.001 550.001 83.001 546.001 c 1
 87.001 539.334 89.001 532.667 89.001 526 c 0
 89.001 518.667 88.001 511.667 86.001 505 c 0
 84.001 499.667 80.668 493.334 76.001 486.001 c 0
 74.001 483.334 71.668 480.001 69.001 476.001 c 0
 65.668 471.334 63.001 467.334 61.001 464.001 c 0
 57.001 460.001 53.334 455.668 50.001 451.001 c 0
 46.668 446.334 43.001 442.001 39.001 438.001 c 1
 39.001 528.001 l 1
22 402.001 m 1
 23.001 402 l 1
 28.334 410 38.667 421 54 435 c 0
 56.667 437 59.667 439.667 63 443 c 2
 73 451 l 2
 75.667 453.667 78.667 456.334 82 459.001 c 0
 85.333 461.668 88.333 464.668 91 468.001 c 1
 95.667 471.334 101.334 476.334 108.001 483.001 c 1
 120.001 498.001 l 2
 124.668 504.001 127.668 509.001 129.001 513.001 c 0
 130.334 518.334 131.001 523.334 131.001 528.001 c 0
 131.001 542.001 126.668 553.001 118.001 561.001 c 0
 113.334 565.001 108.334 568.334 103.001 571.001 c 1
 96.334 572.334 90.667 573.001 86.001 573.001 c 0
 69.334 573.001 53.667 566.001 39 552.001 c 1
 39 761.001 l 1
 23 761.001 l 1
 22 402.001 l 1
157.001 505 m 1
 158.334 475 168.668 450.332 188.001 430.999 c 0
 206.001 412.999 229.001 403.999 257.001 403.999 c 0
 291.668 403.999 319.001 418.332 339.001 446.999 c 1
 355.668 468.999 364.001 496.666 364.001 529.999 c 0
 364.001 563.999 355.001 591.999 337.001 613.999 c 1
 317.668 635.332 295.001 645.999 269.001 645.999 c 0
 249.001 645.999 229.668 637.666 211.001 620.999 c 1
 227.001 719.999 l 1
 347.001 719.999 l 1
 347.001 762.999 l 1
 195.001 762.999 l 1
 164.001 578.999 l 1
 202.001 571.999 l 1
 207.334 579.999 215.001 587.332 225.001 593.999 c 0
 233.668 599.999 245.001 602.999 259.001 602.999 c 0
 280.334 602.999 297.001 595.999 309.001 581.999 c 0
 320.334 567.999 326.001 549.999 326.001 527.999 c 0
 326.001 503.332 319.668 483.332 307.001 467.999 c 0
 295.001 453.999 278.334 446.999 257.001 446.999 c 0
 239.668 446.999 226.001 451.999 216.001 461.999 c 0
 206.001 470.666 199.001 486.333 195.001 509 c 1
 157.001 505 l 1
EndSplineSet
Validated: 524297
EndChar

StartChar: R
Encoding: 45 61522 45
Width: 622
LayerCount: 2
Fore
SplineSet
96 -199 m 1
 171 -198 l 1
 235 -10 l 1
 464 -10 l 1
 528 -198 l 1
 603 -198 l 1
 381 399 l 1
 318 399 l 1
 96 -199 l 1
259 60 m 1
 319 216.999 l 2
 321 224.999 323.667 233.999 327 243.999 c 0
 331 256.666 334 266.333 336 273 c 0
 342 295 346.667 313 350 327 c 1
 354 312.333 359.333 296 366 278 c 0
 374 254 381.333 232.333 388 213 c 2
 440 60 l 1
 259 60 l 1
-32 -201.001 m 1
 48 -200.001 l 1
 259 725.999 l 1
 178 725.999 l 1
 -32 -201.001 l 1
EndSplineSet
Validated: 524297
EndChar

StartChar: S
Encoding: 46 61523 46
Width: 639
LayerCount: 2
Fore
SplineSet
-32 -201 m 1
 48 -200 l 1
 259 726 l 1
 178 726 l 1
 -32 -201 l 1
209 -199 m 1
 412.998 -197.998 l 2
 445.665 -197.998 474.332 -194.665 498.999 -187.998 c 0
 520.332 -181.998 539.999 -172.331 557.999 -158.998 c 1
 572.666 -145.665 585.666 -126.998 596.999 -102.998 c 0
 607.666 -78.3311 612.999 -52.3311 612.999 -24.998 c 0
 612.999 9.002 604.999 38.6689 588.999 64.002 c 0
 572.332 89.335 549.332 107.668 519.999 119.001 c 1
 545.332 133.668 564.332 151.668 576.999 173.001 c 1
 589.666 198.334 595.999 222.667 595.999 246 c 0
 595.999 271.334 588.666 297.667 573.999 325 c 1
 559.332 348.334 539.332 366.667 513.999 380 c 0
 488.666 392.667 455.333 399 414 399 c 2
 209 399 l 1
 209 -199 l 1
278.998 145.002 m 1
 278.996 327.002 l 1
 389.996 327.002 l 2
 427.329 327.002 455.329 324.335 473.996 319.002 c 1
 488.663 313.002 501.33 302.335 511.997 287.002 c 1
 520.664 271.669 524.997 254.002 524.997 234.002 c 0
 524.997 212.668 520.33 195.335 510.997 182.002 c 0
 500.997 168.002 486.997 158.002 468.997 152.002 c 0
 453.664 147.335 430.331 145.002 398.998 145.002 c 2
 278.998 145.002 l 1
278.996 -127.998 m 1
 278.996 73.002 l 1
 406.996 73.002 l 2
 441.663 73.002 468.663 69.6689 487.996 63.002 c 0
 505.331 57.002 519.331 45.6689 529.996 29.002 c 1
 538.663 10.335 542.996 -8.332 542.996 -26.999 c 0
 542.996 -44.332 539.329 -60.332 531.996 -74.999 c 0
 525.329 -87.666 515.996 -98.666 503.996 -107.999 c 1
 492.663 -115.332 478.996 -120.665 462.996 -123.998 c 0
 460.329 -123.998 453.996 -124.665 443.996 -125.998 c 0
 439.326 -125.998 434.659 -126.331 429.996 -126.998 c 2
 413.996 -126.998 l 1
 278.996 -127.998 l 1
EndSplineSet
Validated: 524297
EndChar

StartChar: T
Encoding: 47 61524 47
Width: 857
LayerCount: 2
Fore
SplineSet
-32 -201 m 1
 48 -200 l 1
 259 726 l 1
 178 726 l 1
 -32 -201 l 1
222 -202 m 1
 425.999 -200.999 l 2
 453.999 -200.999 482.666 -197.666 511.999 -190.999 c 1
 533.999 -183.666 553.666 -173.666 570.999 -160.999 c 1
 587.666 -145.666 600.666 -127.333 609.999 -106 c 0
 620.666 -81.333 625.999 -55.333 625.999 -28 c 0
 625.999 6.00001 617.999 36 601.999 62 c 1
 584.666 87.333 561.666 105.333 532.999 116 c 1
 557.666 130 576.666 148.333 589.999 171 c 0
 602.666 193.667 608.999 217.667 608.999 243 c 0
 608.999 268.334 601.666 294.667 586.999 322 c 1
 571.666 347.333 551.666 366 526.999 378 c 0
 501.666 390 468.333 396 427 396 c 2
 222 396 l 1
 222 -202 l 1
291.999 142.001 m 1
 291.998 325.001 l 1
 402.998 325.001 l 2
 442.998 325.001 470.998 322.001 486.998 316.001 c 0
 503.665 309.334 516.332 299.001 524.999 285.001 c 0
 533.666 269.668 537.999 252.001 537.999 232.001 c 0
 537.999 210.668 533.332 193.001 523.999 179.001 c 0
 513.999 165.001 499.999 155.001 481.999 149.001 c 1
 463.332 144.334 439.999 142.001 411.999 142.001 c 2
 291.999 142.001 l 1
291.998 -129.999 m 1
 291.997 71.001 l 1
 419.997 71.001 l 2
 451.33 71.001 478.33 67.668 500.997 61.001 c 1
 520.997 53.001 534.997 41.334 542.997 26.001 c 0
 551.664 8.00101 555.997 -10.332 555.997 -28.999 c 0
 555.997 -46.999 552.33 -63.332 544.997 -77.999 c 1
 536.33 -92.666 526.997 -103.666 516.997 -110.999 c 1
 503.664 -118.332 489.997 -123.332 475.997 -125.999 c 0
 466.664 -127.999 450.331 -128.999 426.998 -128.999 c 2
 291.998 -129.999 l 1
668.997 364.001 m 1
 668.999 -188.997 l 1
 673.666 -183.664 683.666 -173.331 698.999 -157.998 c 0
 706.999 -148.665 713.666 -141.998 718.999 -137.998 c 0
 734.332 -123.331 748.665 -111.331 761.998 -101.998 c 1
 780.665 -86.665 797.665 -70.998 812.998 -54.998 c 1
 828.331 -36.998 835.998 -18.3311 835.998 1.002 c 0
 835.998 18.335 828.998 34.668 814.998 50.0011 c 1
 799.665 64.0011 784.665 71.0011 769.998 71.0011 c 0
 757.331 71.0011 744.664 68.3341 731.997 63.0011 c 0
 726.664 61.0011 720.664 58.3341 713.997 55.0011 c 0
 705.997 51.0011 699.997 47.3341 695.997 44.0011 c 1
 695.997 364.001 l 1
 668.997 364.001 l 1
695.999 -134.997 m 1
 695.999 4.00201 l 2
 695.999 8.66901 701.332 16.336 711.999 27.0029 c 0
 719.999 34.3359 728.332 38.0029 736.999 38.0029 c 1
 738.999 37.0029 l 1
 741.999 37.0029 l 2
 751.332 37.0029 759.332 32.3359 765.999 23.0029 c 0
 772.666 13.6699 775.999 3.66991 775.999 -6.99709 c 0
 775.999 -24.3301 769.332 -42.3301 755.999 -60.9971 c 1
 747.332 -70.9971 739.332 -81.3301 731.999 -91.9971 c 0
 729.999 -93.9971 725.999 -98.6641 719.999 -105.997 c 0
 711.999 -114.664 704.332 -123.664 696.999 -132.997 c 1
 695.999 -134.997 l 1
EndSplineSet
Validated: 524297
EndChar

StartChar: U
Encoding: 48 61525 48
Width: 659
LayerCount: 2
Fore
SplineSet
-32 -201 m 1
 48 -200 l 1
 259 726 l 1
 178 726 l 1
 -32 -201 l 1
563 13 m 1
 553.667 -34.333 534.999 -70.666 506.999 -95.999 c 0
 479.666 -120.666 446.333 -132.999 407 -132.999 c 0
 374.333 -132.999 344 -123.999 316 -105.999 c 0
 288 -87.332 267.667 -59.999 255 -23.999 c 0
 241.667 11.334 235 54.001 235 104.001 c 0
 235 137.334 240.333 174.334 251 215.001 c 1
 261 249.001 280.333 278.001 309 302.001 c 1
 336.333 323.334 370 334.001 410 334.001 c 0
 444 334.001 473.333 324.334 498 305.001 c 1
 521.333 284.334 539 253.334 551 212.001 c 1
 622 230.001 l 1
 607.333 284.001 582 327.001 546 359.001 c 1
 508.667 389.668 464.334 405.001 413.001 405.001 c 0
 366.334 405.001 324.001 393.001 286.001 369.001 c 1
 247.334 346.334 217.334 311.667 196.001 265.001 c 0
 175.334 218.334 165.001 164.667 165.001 104 c 0
 165.001 46.667 174.334 -5.66599 193.001 -52.999 c 1
 210.334 -101.666 237.667 -139.333 275 -166 c 1
 309 -192 355.333 -205 414 -205 c 0
 468 -205 514.667 -187.667 554 -153 c 0
 592.667 -117.667 619 -68.667 633 -6 c 1
 563 13 l 1
EndSplineSet
Validated: 524297
EndChar

StartChar: V
Encoding: 49 61526 49
Width: 701
LayerCount: 2
Fore
SplineSet
-32 -201 m 1
 48 -200 l 1
 259 726 l 1
 178 726 l 1
 -32 -201 l 1
230 -202 m 1
 424.001 -200.999 l 2
 450.001 -200.999 479.001 -197.666 511.001 -190.999 c 1
 533.001 -184.332 554.334 -174.332 575.001 -160.999 c 1
 592.334 -146.332 608.667 -127.999 624 -105.999 c 1
 638.667 -79.999 651 -51.332 661 -19.999 c 1
 670.333 16.001 675 56.001 675 100.001 c 0
 675 153.334 668 200.667 654 242 c 0
 640 282 618.667 316.333 590 345 c 1
 566 365.667 539.667 380 511 388 c 1
 485 393.333 453 396 415 396 c 2
 230 396 l 1
 230 -202 l 1
300.001 -129.999 m 1
 300 325.002 l 1
 415 325.002 l 2
 457 325.002 488 320.669 508 312.002 c 0
 534.667 300.002 557.334 277.669 576 245.002 c 0
 595.333 210.335 605 162.335 605 101.002 c 0
 605 55.6689 600 17.6689 590 -12.998 c 0
 580.664 -43.665 567.331 -68.332 550 -86.999 c 0
 536 -100.999 519.667 -111.332 501 -117.999 c 0
 481.667 -125.332 453.334 -128.999 416.001 -128.999 c 2
 300.001 -129.999 l 1
EndSplineSet
Validated: 524297
EndChar

StartChar: W
Encoding: 50 61527 50
Width: 656
LayerCount: 2
Fore
SplineSet
-32 -201 m 1
 48 -200 l 1
 259 726 l 1
 178 726 l 1
 -32 -201 l 1
222 -202 m 1
 620 -201 l 1
 620 -129 l 1
 292 -129 l 1
 292 71 l 1
 591 71 l 1
 591 142 l 1
 292 142 l 1
 292 325 l 1
 609 325 l 1
 609 396 l 1
 222 396 l 1
 222 -202 l 1
EndSplineSet
Validated: 9
EndChar

StartChar: X
Encoding: 51 61528 51
Width: 639
LayerCount: 2
Fore
SplineSet
-32 -201 m 1
 48 -200 l 1
 259 726 l 1
 178 726 l 1
 -32 -201 l 1
243 -202 m 1
 313 -201 l 1
 313 71 l 1
 559 71 l 1
 559 142 l 1
 313 142 l 1
 313 325 l 1
 606 325 l 1
 606 396 l 1
 243 396 l 1
 243 -202 l 1
EndSplineSet
Validated: 9
EndChar

StartChar: Y
Encoding: 52 61529 52
Width: 716
LayerCount: 2
Fore
SplineSet
-32 -201 m 1
 48 -200 l 1
 259 726 l 1
 178 726 l 1
 -32 -201 l 1
450 32 m 1
 608.999 31.998 l 1
 608.999 -76.002 l 1
 592.332 -89.335 569.332 -103.002 539.999 -117.002 c 1
 505.999 -129.669 474.999 -136.002 446.999 -136.002 c 0
 410.332 -136.002 375.999 -127.335 343.999 -110.002 c 0
 309.999 -91.335 285.666 -65.668 270.999 -33.001 c 1
 253.666 0.999001 244.999 44.332 244.999 96.999 c 0
 244.999 139.666 251.999 178.666 265.999 213.999 c 0
 273.999 235.332 285.666 254.665 300.999 271.998 c 0
 315.666 288.665 335.333 302.998 360 314.998 c 1
 386.667 325.665 415.334 330.998 446.001 330.998 c 0
 474.001 330.998 499.668 325.998 523.001 315.998 c 0
 544.334 305.998 561.667 292.331 575 274.998 c 1
 587.667 256.331 598 232.998 606 204.998 c 1
 670 224.998 l 1
 660.667 263.665 647 296.332 629 322.999 c 1
 611 347.666 586 367.333 554 382 c 1
 520 396 484.333 403 447 403 c 0
 394.333 403 346.666 390.667 304 366 c 0
 262 342 230 305 208 255 c 0
 186 205 175 151.333 175 94 c 0
 175 35.333 186 -17 208 -63 c 0
 230.667 -110.333 263.667 -146 307 -170 c 0
 351 -194.667 399.667 -207 453 -207 c 0
 493 -207 531.667 -199.333 569 -184 c 0
 605 -169.333 641.667 -146.333 679 -115 c 1
 679 103 l 1
 450 103 l 1
 450 32 l 1
EndSplineSet
Validated: 524297
EndChar

StartChar: Z
Encoding: 53 61530 53
Width: 682
LayerCount: 2
Fore
SplineSet
-32 -201 m 1
 48 -200 l 1
 259 726 l 1
 178 726 l 1
 -32 -201 l 1
219 -202 m 1
 290 -201 l 1
 290 77 l 1
 571 77 l 1
 571 -201 l 1
 641 -201 l 1
 641 396 l 1
 571 396 l 1
 571 149 l 1
 290 149 l 1
 290 396 l 1
 219 396 l 1
 219 -202 l 1
EndSplineSet
Validated: 9
EndChar

StartChar: bracketleft
Encoding: 54 61531 54
Width: 116
LayerCount: 2
Fore
SplineSet
87 322 m 1
 114.999 322 l 1
 70.332 398 47.999 474 47.999 550 c 0
 47.999 580 50.999 610 56.999 640 c 0
 61.666 661.333 68.999 684 78.999 708 c 0
 81.666 715.333 86.333 725 93 737 c 0
 99 749 106.333 763 115 779 c 1
 87 779 l 1
 58.333 739 38 699 26 659 c 0
 14.667 621.667 9 585.667 9 551 c 0
 9 508.333 16.667 466.666 32 426 c 0
 48 382.667 66.333 348 87 322 c 1
EndSplineSet
Validated: 524297
EndChar

StartChar: bracketright
Encoding: 55 61533 55
Width: 108
LayerCount: 2
Fore
SplineSet
16 323 m 1
 36 351.667 54.332 386.668 70.999 428.001 c 0
 86.332 467.335 93.999 508.668 93.999 552.001 c 0
 93.999 586.668 88.332 622.668 76.999 660.001 c 1
 63.666 700.001 43.333 740.001 16 780.001 c 1
 -11 780.001 l 1
 4.333 750.001 16 726.001 24 708.001 c 1
 34 681.334 41 658.667 45 640 c 0
 51.667 608 55 578.333 55 551 c 0
 55 475.667 33 399.667 -11 323 c 1
 16 323 l 1
EndSplineSet
Validated: 524297
EndChar

StartChar: asciicircum
Encoding: 56 61534 56
Width: 433
LayerCount: 2
Fore
SplineSet
189 725 m 1
 21 405 l 1
 21 325 l 1
 413 325 l 1
 413 405 l 1
 245 725 l 1
 189 725 l 1
67 373 m 1
 212 683 l 1
 366 373 l 1
 67 373 l 1
EndSplineSet
Validated: 9
EndChar

StartChar: underscore
Encoding: 57 61535 57
Width: 721
Flags: HO
LayerCount: 2
Fore
SplineSet
493 -97 m 1
 509 -99 513 -99 527 -99 c 0
 601 -99 639 -66 640 0 c 1
 640 42 l 1
 633 30 624 20 613 11 c 1
 602 4 590 0 575 0 c 0
 555 0 537 5 522 16 c 0
 505 29 494 45 487 65 c 0
 479 85 475 108 475 135 c 0
 475 162 479 185 488 205 c 1
 496 226 508 241 524 252 c 0
 539 263 556 269 575 269 c 0
 603 269 625 254 640 223 c 1
 640 265 l 1
 679 265 l 1
 679 0 l 1
 675 -90 622 -136 522 -136 c 0
 509 -136 507 -136 493 -135 c 1
 493 -97 l 1
188 35 m 1
 189 24 192 14 198 4 c 1
 237 4 l 1
 232 16 229 28 228 41 c 0
 227 58 226 83 226 118 c 2
 226 173 l 2
 226 194 225 207 224 212 c 0
 222 224 218 234 212 242 c 0
 206 249 197 255 184 262 c 0
 173 267 156 269 135 269 c 0
 114 269 97 266 82 260 c 0
 67 255 55 246 47 235 c 0
 38 223 33 208 30 191 c 1
 68 184 l 1
 72 199 79 210 88 217 c 0
 97 224 110 227 128 227 c 0
 147 227 162 222 173 213 c 0
 180 206 184 195 184 178 c 2
 184 174 l 1
 184 168 l 1
 169 162 145 157 114 153 c 0
 97 150 86 148 79 146 c 0
 69 143 59 138 50 132 c 0
 42 126 35 118 30 107 c 0
 25 98 23 86 23 73 c 0
 23 51 30 33 43 20 c 0
 57 7 76 0 101 0 c 0
 115 0 130 3 145 8 c 0
 159 13 173 22 188 35 c 1
184 125 m 1
 184 112 l 2
 184 97 182 86 178 78 c 0
 171 67 162 59 151 53 c 0
 139 46 125 43 109 43 c 0
 93 43 81 46 73 52 c 0
 65 59 61 67 61 76 c 0
 61 82 63 88 67 93 c 0
 70 98 75 101 83 104 c 0
 91 107 103 110 118 112 c 0
 145 115 167 119 184 125 c 1
406 3 m 1
 406 48 l 1
 388 16 364 0 335 0 c 0
 319 0 307 3 298 8 c 0
 285 14 276 21 272 30 c 1
 265 39 261 50 260 63 c 0
 259 76 258 89 258 104 c 2
 258 265 l 1
 297 265 l 1
 297 124 l 2
 297 104 298 89 299 79 c 0
 300 67 305 58 315 52 c 1
 324 45 333 42 344 42 c 0
 353 42 364 45 377 52 c 0
 387 58 394 67 399 79 c 0
 404 90 406 107 406 129 c 2
 406 265 l 1
 444 265 l 1
 444 3 l 1
 406 3 l 1
514 135 m 0
 514 102 520 78 531 65 c 0
 543 50 558 42 576 42 c 0
 594 42 609 50 621 66 c 1
 634 81 640 105 640 138 c 0
 640 168 634 190 622 204 c 0
 610 219 595 226 577 226 c 0
 559 226 544 218 532 203 c 0
 520 188 514 166 514 135 c 0
EndSplineSet
EndChar

StartChar: a
Encoding: 58 61537 58
Width: 721
LayerCount: 2
Fore
SplineSet
188 35 m 1
 188.667 24.333 192.002 13.999 198.002 3.999 c 1
 237.002 3.999 l 1
 232.335 15.999 229.335 28.332 228.002 40.999 c 0
 226.669 57.666 226.002 83.333 226.002 118 c 2
 226.002 173 l 2
 226.002 193.667 225.335 206.667 224.002 212 c 0
 222.002 224 218.002 234 212.002 242 c 0
 206.002 248.667 196.669 255.334 184.002 262 c 1
 172.668 266.667 156.335 269 135.002 269 c 0
 114.335 269 96.668 266 82.001 260 c 0
 66.668 254.666 55.001 246.333 47.001 235 c 0
 38.334 223 32.667 208.333 30 191 c 1
 68 184 l 1
 72 199.333 78.667 210.333 88 217 c 0
 96.667 223.667 110 227 128 227 c 0
 147.333 227 162.333 222.333 173 213 c 0
 180.333 206.333 184 194.666 184 177.999 c 2
 184 173.999 l 1
 184 167.999 l 1
 168.667 161.999 145.334 156.999 114.001 152.999 c 0
 97.334 150.332 85.667 147.999 79 145.999 c 0
 69 142.666 59.333 137.999 50 131.999 c 0
 42 125.999 35.333 117.666 30 106.999 c 0
 25.333 97.666 23 86.333 23 73 c 0
 23 51 29.667 33.333 43 20 c 0
 57 6.66699 76.333 -7.62939e-06 101 -7.62939e-06 c 0
 115 -7.62939e-06 129.667 2.66698 145 7.99999 c 0
 159 13.333 173.333 22.333 188 35 c 1
184.002 124.999 m 1
 184.002 111.998 l 2
 184.002 97.3311 182.002 85.998 178.002 77.998 c 1
 170.669 67.3311 161.669 58.998 151.002 52.998 c 0
 139.002 46.3311 125.002 42.998 109.002 42.998 c 0
 93.002 42.998 81.002 45.998 73.002 51.998 c 0
 65.002 58.665 61.002 66.665 61.002 75.998 c 0
 61.002 81.998 63.002 87.665 67.002 92.998 c 0
 69.6689 97.665 75.002 101.332 83.002 103.999 c 0
 91.002 107.332 102.669 109.999 118.002 111.999 c 0
 145.335 114.666 167.335 118.999 184.002 124.999 c 1
425.002 3.99805 m 1
 464.002 3.99805 l 1
 464.002 362.998 l 1
 425.002 362.998 l 1
 425.002 226.998 l 1
 417.669 238.998 408.669 249.331 398.002 257.998 c 1
 386.002 265.331 373.335 268.998 360.002 268.998 c 0
 340.002 268.998 322.335 263.665 307.002 252.998 c 1
 291.669 240.998 280.002 224.665 272.002 203.998 c 0
 264.002 182.665 260.002 159.332 260.002 133.999 c 0
 260.002 107.332 264.335 83.9991 273.002 63.9991 c 0
 281.002 43.3321 293.002 27.6651 309.002 16.9981 c 1
 323.002 5.66505 340.002 -0.0019455 360.002 -0.0019455 c 0
 388.002 -0.0019455 409.669 15.3312 425.002 45.9981 c 1
 425.002 3.99805 l 1
299.002 133.998 m 0
 299.002 165.998 304.669 189.331 316.002 203.998 c 0
 327.335 218.665 342.335 225.998 361.002 225.998 c 0
 379.002 225.998 394.335 218.331 407.002 202.998 c 0
 419.002 187.665 425.002 163.665 425.002 130.998 c 0
 425.002 100.998 419.002 78.998 407.002 64.998 c 0
 395.002 50.3311 380.335 42.998 363.002 42.998 c 0
 344.335 42.998 329.335 50.665 318.002 65.998 c 1
 305.335 79.998 299.002 102.665 299.002 133.998 c 0
658.002 3.99805 m 1
 697.004 3.99902 l 1
 697.004 362.999 l 1
 658.004 362.999 l 1
 658.004 226.999 l 1
 650.671 238.999 641.671 249.332 631.004 257.999 c 1
 620.337 265.332 607.67 268.999 593.003 268.999 c 0
 573.003 268.999 555.336 263.666 540.003 252.999 c 0
 523.336 240.332 511.669 223.999 505.002 203.999 c 1
 497.002 183.999 493.002 160.666 493.002 133.999 c 0
 493.002 107.332 497.335 83.999 506.002 63.999 c 0
 514.002 43.332 526.002 27.665 542.002 16.998 c 0
 557.335 5.66502 574.335 -0.00197601 593.002 -0.00197601 c 0
 621.002 -0.00197601 642.669 15.3311 658.002 45.998 c 1
 658.002 3.99805 l 1
532.004 133.999 m 0
 532.004 167.332 537.671 190.665 549.004 203.998 c 0
 561.004 219.331 576.004 226.998 594.004 226.998 c 0
 612.004 226.998 627.004 218.998 639.004 202.998 c 1
 651.671 188.331 658.004 164.331 658.004 130.998 c 0
 658.004 100.998 652.004 78.998 640.004 64.998 c 0
 628.004 50.3311 613.004 42.998 595.004 42.998 c 0
 577.004 42.998 562.004 50.665 550.004 65.998 c 0
 538.004 80.665 532.004 103.332 532.004 133.999 c 0
EndSplineSet
Validated: 524297
EndChar

StartChar: b
Encoding: 59 61538 59
Width: 280
LayerCount: 2
Fore
SplineSet
25 722 m 1
 25 -3 l 1
 38 8 l 1
 42.667 13.333 47.667 18.666 53 23.999 c 0
 59 29.332 64 33.999 68 37.999 c 2
 72 41.999 l 2
 85.333 53.999 93.333 60.999 96 62.999 c 0
 111.333 75.666 132.333 91.333 159 110 c 1
 186.333 130.667 210.666 151.667 231.999 173 c 0
 253.332 194.333 263.999 219 263.999 247 c 0
 263.999 270.333 253.999 292 233.999 312 c 1
 213.999 330 192.666 339 169.999 339 c 0
 150.666 339 132.333 335.667 115 329 c 0
 98.333 322.333 81 314 63 304 c 1
 63 722 l 1
 25 722 l 1
63 69 m 1
 63 250.999 l 2
 63 258.999 71 268.999 87 280.999 c 0
 99 290.332 113 294.999 129 294.999 c 1
 142.333 292.332 154.333 285.999 165 275.999 c 1
 173.667 264.666 178 251.333 178 236 c 0
 178 210.667 169 187 151 165 c 0
 127 137.667 97.667 105.667 63 69 c 1
EndSplineSet
Validated: 524297
EndChar

StartChar: c
Encoding: 60 61539 60
Width: 395
LayerCount: 2
Fore
SplineSet
87 93 m 1
 88.333 63.667 97.6689 40.3359 115.002 23.0029 c 0
 130.335 7.6699 150.335 0.00289917 175.002 0.00289917 c 0
 199.002 0.00289917 219.335 6.66989 236.002 20.0029 c 0
 252.669 33.3359 265.669 54.0029 275.002 82.0029 c 1
 283.669 112.003 288.002 148.003 288.002 190.003 c 0
 288.002 231.336 283.335 264.669 274.002 290.002 c 1
 264.669 311.335 252.002 329.335 236.002 344.002 c 1
 218.669 356.002 199.669 362.002 179.002 362.002 c 0
 149.669 362.002 126.002 351.002 108.002 329.002 c 0
 89.335 305.002 80.002 275.669 80.002 241.002 c 0
 80.002 206.335 89.002 178.002 107.002 156.002 c 0
 125.002 134.669 147.335 124.002 174.002 124.002 c 0
 189.335 124.002 203.668 128.335 217.001 137.001 c 0
 230.334 145.668 241.001 157.001 249.001 171.001 c 1
 249.001 166.001 l 1
 249.001 162.001 l 2
 249.001 144.001 247.001 127.001 243.001 111.001 c 0
 240.334 97.6679 236.001 85.0009 230.001 73.0009 c 0
 226.001 64.3339 219.001 56.6669 209.001 49.9999 c 1
 198.334 44.6669 187.667 41.9999 177 41.9999 c 0
 162.333 41.9999 151.333 46.3329 144 54.9999 c 1
 134 62.3329 128 76.3329 126 96.9999 c 1
 87 93 l 1
249.003 242.002 m 0
 249.003 217.335 243.003 199.002 231.003 187.002 c 0
 218.336 173.669 203.003 167.002 185.003 167.002 c 0
 165.003 167.002 149.003 173.669 137.003 187.002 c 0
 125.003 199.002 119.003 216.335 119.003 239.002 c 0
 119.003 262.336 125.336 281.669 138.003 297.002 c 0
 150.003 311.669 166.003 319.002 186.003 319.002 c 0
 204.67 319.002 219.67 312.002 231.003 298.002 c 1
 235.003 294.669 238.67 291.002 242.003 287.002 c 0
 244.67 283.002 247.003 280.002 249.003 278.002 c 1
 249.003 263.002 l 1
 249.003 242.002 l 0
41.0029 515.002 m 1
 47.6699 531.669 57.3359 540.002 70.0029 540.002 c 0
 75.3359 540.002 80.3359 537.669 85.0029 533.002 c 1
 88.3369 526.335 90.6699 519.668 92.0029 513.001 c 0
 92.0029 510.332 90.6699 503.665 88.0029 493 c 0
 86.0029 485.667 82.6699 479 78.0029 473 c 0
 75.3359 470.333 73.0029 467 71.0029 463 c 2
 63.0029 451 l 2
 59.6699 447.667 56.0029 443.334 52.0029 438.001 c 0
 48.0029 432.668 44.3359 428.335 41.0029 425.002 c 1
 41.0029 515.002 l 1
24.002 389.002 m 1
 25.0029 389.004 l 1
 29.0029 395.004 39.3359 406.004 56.0029 422.004 c 0
 65.3359 430.004 71.6689 435.671 75.002 439.004 c 0
 79.002 441.671 82.335 444.338 85.002 447.005 c 0
 89.002 451.005 92.002 453.672 94.002 455.005 c 0
 99.335 459.672 105.002 465.005 111.002 471.005 c 2
 114.002 474.005 l 2
 114.669 475.34 115.669 476.673 117.002 478.004 c 2
 120.002 481.004 l 2
 120.669 482.345 121.669 483.678 123.002 485.004 c 0
 127.002 491.004 129.669 496.004 131.002 500.004 c 0
 133.002 504.004 134.002 509.004 134.002 515.004 c 0
 132.669 530.337 128.002 541.67 120.002 549.003 c 0
 116.669 552.336 111.669 555.669 105.002 559.002 c 1
 97.002 560.335 91.335 561.002 88.002 561.002 c 0
 70.6689 561.002 55.002 554.002 41.002 540.002 c 1
 41.002 749.002 l 1
 24.002 749.002 l 1
 24.002 389.002 l 1
158.003 490.004 m 1
 158.67 458.671 169.002 434.005 189.002 416.005 c 1
 206.335 397.338 229.335 388.005 258.002 388.005 c 0
 292.669 388.005 320.336 402.338 341.003 431.005 c 1
 357.003 455.005 365.003 483.005 365.003 515.005 c 0
 365.003 549.005 356.003 576.672 338.003 598.005 c 0
 319.336 619.338 296.669 630.005 270.003 630.005 c 0
 250.003 630.005 230.67 621.672 212.003 605.005 c 1
 229.003 705.005 l 1
 348.003 705.005 l 1
 348.003 748.005 l 1
 197.003 748.005 l 1
 165.003 564.005 l 1
 204.003 556.005 l 1
 208.67 565.338 216.003 573.005 226.003 579.005 c 0
 235.336 584.338 246.669 587.005 260.002 587.005 c 0
 280.669 587.005 297.336 580.338 310.003 567.005 c 1
 321.336 552.338 327.003 534.005 327.003 512.005 c 0
 327.003 487.337 320.67 467.67 308.003 453.004 c 0
 295.336 438.337 279.003 431.004 259.003 431.004 c 0
 241.67 431.004 227.67 436.337 217.003 447.004 c 0
 205.003 458.337 198.336 474.004 197.003 494.004 c 1
 158.003 490.004 l 1
EndSplineSet
Validated: 524297
EndChar

StartChar: d
Encoding: 61 61540 61
Width: 393
LayerCount: 2
Fore
SplineSet
117 482 m 1
 118.333 452.667 127.335 429.668 144.002 413.001 c 0
 159.335 396.334 179.668 388.001 205.001 388.001 c 0
 227.668 388.001 247.668 395.001 265.001 409.001 c 0
 281.668 422.334 294.668 443.001 304.001 471.001 c 1
 312.668 501.001 317.001 537.001 317.001 579.001 c 0
 317.001 620.334 312.334 653.667 303.001 679 c 0
 295.001 700.333 282.334 718.333 265.001 733 c 1
 247.668 745 229.001 751 209.001 751 c 0
 179.668 751 156.001 740 138.001 718 c 0
 118.668 695.333 109.001 666 109.001 630 c 0
 109.001 594.665 118.334 566.332 137.001 545 c 0
 155.001 523.667 177.001 513 203.001 513 c 0
 215.668 513 230.335 517.333 247.001 526 c 1
 261.001 534.667 271.334 546 278.001 560 c 1
 278.001 555 l 1
 278.001 551 l 2
 278.001 535.667 276.334 518.667 273.001 500 c 1
 269.001 484 264.334 471.333 259.001 462 c 1
 255.001 452.667 248.001 445 238.001 439 c 0
 227.334 433.667 216.667 431 206 431 c 0
 193.333 431 182.333 435.333 173 444 c 0
 163 452.667 157 466.667 155 486 c 1
 117 482 l 1
278.002 632.001 m 2
 278.002 631.002 l 2
 278.002 606.335 272.002 588.002 260.002 576.002 c 0
 247.335 562.669 232.002 556.002 214.002 556.002 c 0
 194.002 556.002 178.002 562.669 166.002 576.002 c 0
 154.002 588.002 148.002 605.335 148.002 628.002 c 0
 148.002 649.335 154.335 668.668 167.002 686.001 c 1
 179.002 700.668 195.002 708.001 215.002 708.001 c 0
 233.669 708.001 249.002 701.001 261.002 687.001 c 0
 272.335 672.334 278.002 654.001 278.002 632.001 c 2
165.002 101.002 m 1
 165.669 71.002 176.005 46.3359 196.005 27.0029 c 0
 214.005 9.0029 237.005 0.00289917 265.005 0.00289917 c 0
 296.338 0.00289917 322.005 10.6699 342.005 32.0029 c 0
 362.005 54.0029 372.005 81.0029 372.005 113.003 c 0
 372.005 136.336 366.672 155.669 356.005 171.002 c 1
 343.338 186.335 328.005 196.668 310.005 202.001 c 1
 324.005 208.001 335.005 217.668 343.005 231.001 c 0
 351.005 243.001 355.005 256.668 355.005 272.001 c 0
 355.005 288.001 351.005 303.001 343.005 317.001 c 0
 335.005 331.001 324.005 342.001 310.005 350.001 c 0
 294.672 358.001 279.005 362.001 263.005 362.001 c 0
 237.005 362.001 216.005 354.001 200.005 338.001 c 0
 182.005 320.001 171.338 297.001 168.005 269.001 c 1
 207.005 261.001 l 1
 208.338 279.001 214.671 293.668 226.004 305.001 c 0
 236.004 314.334 248.671 319.001 264.004 319.001 c 0
 279.338 319.001 291.671 314.334 301.003 305.001 c 0
 311.003 295.668 316.003 284.001 316.003 270.001 c 0
 316.003 251.334 309.336 238.001 296.003 230.001 c 0
 281.336 221.334 267.003 217.001 253.003 217.001 c 0
 252.336 217.001 251.336 217.334 250.003 218.001 c 2
 247.003 218.001 l 1
 242.003 175.001 l 1
 255.336 178.334 264.669 180.001 270.002 180.001 c 0
 288.002 180.001 303.335 173.668 316.002 161.001 c 0
 327.335 148.334 333.002 132.334 333.002 113.001 c 0
 333.002 93.001 327.002 76.001 315.002 62.001 c 0
 302.335 48.668 286.335 42.001 267.002 42.001 c 0
 249.002 42.001 235.335 47.334 226.002 58.001 c 1
 214.669 66.668 207.002 83.335 203.002 108.002 c 1
 165.002 101.002 l 1
144.005 0.00292969 m 1
 144.007 359.003 l 1
 119.007 359.003 l 1
 110.34 341.67 98.6729 325.67 84.0059 311.003 c 0
 69.3389 296.336 49.6719 282.336 25.0049 269.003 c 1
 25.0049 227.003 l 1
 33.6719 229.003 47.6719 236.336 67.0049 249.003 c 0
 79.0049 255.67 92.0049 266.003 106.005 280.003 c 1
 106.005 0.00292969 l 1
 144.005 0.00292969 l 1
EndSplineSet
Validated: 524297
EndChar

StartChar: e
Encoding: 62 61541 62
Width: 490
LayerCount: 2
Fore
SplineSet
384 167 m 1
 370 135.667 352.667 113.667 332 101 c 0
 309.333 87.667 283 81 253 81 c 0
 211.667 81 177 95 149 123 c 0
 119.667 151.667 104.667 192.334 104 245.001 c 1
 462 245.001 l 1
 462 258.001 l 1
 462 268.001 l 2
 462 352.668 442 418.001 402 464.001 c 0
 361.333 510.668 309.666 534.001 247 534.001 c 0
 180.333 534.001 127 510.001 87 462.001 c 0
 46.333 412.001 26 344.668 26 260.001 c 0
 26 176.668 46.333 111.335 87 64.002 c 0
 126.333 19.335 181.333 -3.33202 252 -3.99902 c 0
 306 -3.99902 351 9.33398 387 36.001 c 0
 422.334 63.334 446.667 101.667 460 151 c 1
 384 167 l 1
104 331 m 1
 106 366.334 120.667 394.667 148 416 c 0
 174 437.333 207 448 247 448 c 0
 287.667 448 322.667 434.667 352 408 c 1
 370 389.333 381 363.666 385 331 c 1
 104 331 l 1
EndSplineSet
Validated: 524297
EndChar

StartChar: f
Encoding: 63 61542 63
Width: 270
LayerCount: 2
Fore
SplineSet
39 94 m 1
 41 64 50.334 41.002 67.001 25.002 c 1
 81.001 8.335 101.001 0.00200081 127.001 0.00200081 c 0
 150.334 0.00200081 170.667 7.002 188 21.002 c 0
 204.667 34.335 217.667 55.002 227 83.002 c 1
 235.667 113.002 240 149.002 240 191.002 c 0
 240 232.335 235.333 265.668 226 291.001 c 1
 216.667 313.001 203.667 331.001 187 345.001 c 1
 171 357.001 152.333 363.001 131 363.001 c 0
 101.667 363.001 78 352.001 60 330.001 c 0
 41.333 306.001 32 276.668 32 242.001 c 0
 32 207.334 41 179.001 59 157.001 c 0
 77 135.668 99.333 125.001 126 125.001 c 0
 139.333 125.001 153.666 129.334 168.999 138 c 1
 181.666 146.667 192.333 158 200.999 172 c 1
 200.999 167 l 1
 200.999 163 l 2
 200.999 145 198.999 128 194.999 112 c 0
 192.332 98.667 187.999 86 181.999 74 c 0
 177.999 64.667 170.666 57 159.999 51 c 0
 149.332 45.667 138.999 43 128.999 43 c 0
 115.666 43 104.333 47.333 95 56 c 0
 85 66 79.333 80 78 98 c 1
 39 94 l 1
201.001 244.002 m 2
 201.001 243.001 l 2
 201.001 218.334 195.001 200.001 183.001 188.001 c 0
 170.334 174.668 155.001 168.001 137.001 168.001 c 0
 117.001 168.001 101.001 174.668 89.001 188.001 c 0
 77.001 200.001 71.001 217.334 71.001 240.001 c 0
 71.001 263.335 77.334 282.668 90.001 298.001 c 0
 102.001 312.668 118.001 320.001 138.001 320.001 c 0
 156.001 320.001 171.001 313.001 183.001 299.001 c 0
 195.001 285.668 201.001 267.335 201.001 244.002 c 2
232.001 659.001 m 1
 228.668 686.334 219.003 709.334 203.003 728.001 c 1
 187.003 744.001 166.336 752.001 141.003 752.001 c 0
 106.336 752.001 79.3359 738.668 60.0029 712.001 c 0
 36.6699 680.001 25.0029 630.001 25.0029 562.001 c 0
 25.0029 500.668 35.3359 456.335 56.0029 429.002 c 0
 77.3359 402.335 104.669 389.002 138.002 389.002 c 0
 157.335 389.002 174.668 394.335 190.001 405.002 c 0
 204.668 414.335 216.668 429.002 226.001 449.002 c 0
 234.668 468.335 239.001 489.002 239.001 511.002 c 0
 239.001 545.669 229.668 573.669 211.001 595.002 c 0
 192.334 616.335 169.667 627.002 143 627.002 c 0
 125.667 627.002 111 623.335 99 616.002 c 0
 83.667 607.335 72 595.335 64 580.002 c 1
 64 613.335 67.667 639.668 75 659.001 c 0
 81 675.001 90.333 688.334 103 699.001 c 1
 113.667 705.668 125.334 709.001 138.001 709.001 c 0
 154.001 709.001 167.668 703.001 179.001 691.001 c 0
 185.001 683.668 190.001 671.668 194.001 655.001 c 1
 232.001 659.001 l 1
64.0029 512.001 m 0
 64.0029 533.334 70.6689 550.668 84.002 564.001 c 0
 96.002 577.334 112.335 584.001 133.002 584.001 c 0
 153.002 584.001 169.335 577.334 182.002 564.001 c 0
 194.669 551.334 201.002 533.334 201.002 510.001 c 0
 201.002 486.668 194.669 467.668 182.002 453.001 c 0
 170.002 439.001 154.335 432.001 135.002 432.001 c 0
 123.669 432.001 111.336 435.334 98.0029 442.001 c 0
 86.0029 448.668 77.6699 458.668 73.0029 472.001 c 1
 67.0029 484.001 64.0029 497.334 64.0029 512.001 c 0
EndSplineSet
Validated: 524297
EndChar

StartChar: g
Encoding: 64 61543 64
Width: 399
LayerCount: 2
Fore
SplineSet
160 491 m 1
 160.667 459.667 170.999 435 190.999 417 c 1
 208.332 398.333 231.332 389 259.999 389 c 0
 294.666 389 322.333 403.333 343 432 c 1
 359 456 367 484 367 516 c 0
 367 550 358 577.667 340 599 c 0
 321.333 620.333 298.666 631 272 631 c 0
 252 631 232.667 622.667 214 606 c 1
 231 706 l 1
 350 706 l 1
 350 749 l 1
 199 749 l 1
 167 565 l 1
 206 557 l 1
 210.667 566.333 218 574 228 580 c 0
 237.333 585.333 248.666 588 261.999 588 c 0
 282.666 588 299.333 581.333 312 568 c 1
 323.333 553.333 329 535 329 513 c 0
 329 488.333 322.667 468.666 310 454 c 0
 297.333 439.333 281 432 261 432 c 0
 243.667 432 229.667 437.333 219 448 c 0
 207 459.333 200.333 475 199 495 c 1
 160 491 l 1
42.999 516 m 1
 49.666 532.667 59.332 541 71.999 541 c 0
 77.332 541 82.332 538.667 86.999 534 c 1
 90.333 527.333 92.666 520.666 93.999 513.999 c 0
 93.999 511.33 92.666 504.663 89.999 493.998 c 0
 87.999 486.665 84.666 479.998 79.999 473.998 c 0
 77.332 471.331 74.999 467.998 72.999 463.998 c 2
 64.999 451.998 l 2
 61.666 448.665 57.999 444.332 53.999 438.999 c 0
 49.999 433.666 46.332 429.333 42.999 426 c 1
 42.999 516 l 1
25.998 390 m 1
 26.999 390.002 l 1
 30.999 396.002 41.332 407.002 57.999 423.002 c 0
 67.332 431.002 73.665 436.669 76.998 440.002 c 0
 80.998 442.669 84.3311 445.336 86.998 448.003 c 0
 90.998 452.003 93.998 454.67 95.998 456.003 c 0
 101.331 460.67 106.998 466.003 112.998 472.003 c 2
 115.998 475.003 l 2
 116.665 476.344 117.665 477.677 118.998 479.003 c 2
 121.998 482.003 l 2
 122.665 483.338 123.665 484.671 124.998 486.002 c 0
 128.998 492.002 131.665 497.002 132.998 501.002 c 0
 134.998 505.002 135.998 510.002 135.998 516.002 c 0
 134.665 531.335 129.998 542.668 121.998 550.001 c 0
 118.665 553.334 113.665 556.667 106.998 560 c 1
 98.998 561.333 93.3311 562 89.998 562 c 0
 72.665 562 56.998 555 42.998 541 c 1
 42.998 750 l 1
 25.998 750 l 1
 25.998 390 l 1
43.999 126.002 m 1
 49.999 142.669 59.666 151 72.999 151 c 0
 78.332 151 83.332 148.667 87.999 144 c 0
 91.999 138.667 93.999 132 93.999 124 c 0
 93.999 116.667 92.999 110 90.999 104 c 0
 90.332 101.333 86.999 94.666 80.999 84 c 1
 78.332 81.333 75.999 78 73.999 74 c 2
 65.999 62 l 2
 62.666 58.667 58.999 54.334 54.999 49.001 c 0
 50.999 43.668 47.332 39.335 43.999 36.002 c 1
 43.999 126.002 l 1
26.999 0 m 1
 28 0.000976562 l 1
 32 6.00098 42.333 17.001 59 33.001 c 0
 68.333 41.001 74.666 46.668 77.999 50.001 c 0
 78.666 50.668 79.999 51.668 81.999 53.001 c 2
 86.999 58.001 l 2
 88.332 58.668 89.999 60.001 91.999 62.001 c 0
 93.332 63.334 94.999 64.667 96.999 66 c 0
 104.999 72 110.332 77.333 112.999 82 c 1
 124.999 96 l 2
 128.332 99.333 131.332 104.333 133.999 111 c 1
 135.332 119 135.999 124 135.999 126 c 0
 135.999 140 131.666 151.333 122.999 160 c 0
 120.999 160.667 118.666 162 115.999 164 c 0
 112.666 166.667 109.999 168.667 107.999 170 c 0
 99.999 171.333 94.332 172 90.999 172 c 0
 73.666 172 57.999 165 43.999 151 c 1
 43.999 360 l 1
 26.999 360 l 1
 26.999 -3.05176e-05 l 1
 26.999 0 l 1
171 94.001 m 1
 173 64.001 182.334 40.6689 199.001 24.002 c 1
 213.001 8.002 233.001 0.0019989 259.001 0.0019989 c 0
 281.668 0.0019989 301.668 7.002 319.001 21.002 c 0
 335.668 34.335 348.668 55.002 358.001 83.002 c 0
 366.668 111.002 371.001 147.002 371.001 191.002 c 0
 371.001 230.335 366.668 263.668 358.001 291.001 c 1
 348.668 313.001 335.668 331.001 319.001 345.001 c 1
 301.668 357.001 283.001 363.001 263.001 363.001 c 0
 233.668 363.001 210.001 352.001 192.001 330.001 c 0
 173.334 306.668 164.001 277.335 164.001 242.002 c 0
 164.001 207.335 173.001 179.002 191.001 157.002 c 0
 209.001 135.669 231.001 125.002 257.001 125.002 c 0
 271.001 125.002 285.668 129.335 301.001 138.001 c 0
 315.001 146.668 325.334 158.001 332.001 172.001 c 1
 332.001 170.668 332.334 169.001 333.001 167.001 c 2
 333.001 163.001 l 2
 333.001 145.001 331.001 128.001 327.001 112.001 c 0
 323.001 94.668 318.334 82.001 313.001 74.001 c 1
 309.001 64.668 302.001 57.001 292.001 51.001 c 0
 281.333 45.668 270.666 43.001 260 43.001 c 0
 246.667 43.001 235.667 47.334 227 56.001 c 1
 217 63.334 211 77.334 209 98.001 c 1
 171 94.001 l 1
332.001 243.002 m 0
 332.001 218.335 326.001 200.002 314.001 188.002 c 0
 301.334 174.669 286.001 168.002 268.001 168.002 c 0
 248.001 168.002 232.001 174.669 220.001 188.002 c 0
 208.001 200.002 202.001 217.335 202.001 240.002 c 0
 202.001 261.336 208.334 280.669 221.001 298.002 c 1
 233.001 312.669 249.001 320.002 269.001 320.002 c 0
 287.668 320.002 303.001 313.002 315.001 299.002 c 0
 326.334 284.335 332.001 265.668 332.001 243.002 c 0
EndSplineSet
Validated: 524297
EndChar

StartChar: h
Encoding: 65 61544 65
Width: 379
LayerCount: 2
Fore
SplineSet
43 489 m 1
 51 505 60.667 512.999 72 512.999 c 0
 77.333 512.999 82.333 510.666 87 505.999 c 1
 90.334 499.332 92.667 492.999 94 486.999 c 0
 94 483.666 92.667 476.666 90 465.999 c 0
 88 457.999 84.667 451.666 80 446.999 c 1
 76 439.666 71 432.333 65 425 c 0
 62.333 421 55 412 43 398 c 1
 43 489 l 1
26 361.999 m 1
 27 361.999 l 1
 34.333 372.666 44.666 383.666 57.999 394.999 c 0
 58.666 395.666 59.999 396.666 61.999 397.999 c 2
 66.999 402.999 l 2
 71.666 407.666 74.999 410.666 76.999 411.999 c 0
 80.999 414.666 84.332 417.333 86.999 420 c 0
 90.999 424 93.999 426.667 95.999 428 c 0
 98.666 430 104.333 435.333 113 444 c 2
 116 447 l 2
 116.667 448.34 117.667 449.673 119 450.999 c 0
 119.667 450.999 121.667 453.666 125 458.999 c 0
 128.333 462.999 131 467.666 133 472.999 c 0
 135 476.999 136 482.332 136 488.999 c 0
 134.667 503.666 130 514.666 122 521.999 c 1
 116 525.999 l 2
 112.667 527.999 109.667 529.999 107 531.999 c 1
 99 533.332 93.333 533.999 90 533.999 c 0
 72.667 533.999 57 526.999 43 512.999 c 1
 43 721.999 l 1
 27 721.999 l 1
 26 361.999 l 1
155 454.999 m 1
 157 424.999 166.331 401.999 182.998 385.999 c 1
 198.331 369.332 218.331 360.999 242.998 360.999 c 0
 264.332 360.999 284.665 368.332 303.998 382.999 c 1
 320.665 397.666 333.665 417.999 342.998 443.999 c 1
 350.998 469.999 354.998 506.332 354.998 552.999 c 0
 354.998 595.666 350.665 628.999 341.998 652.999 c 1
 332.665 674.999 319.665 692.666 302.998 705.999 c 1
 283.665 718.666 264.998 724.999 246.998 724.999 c 0
 218.998 724.999 195.331 713.666 175.998 690.999 c 0
 157.331 667.666 147.998 638.666 147.998 603.999 c 0
 147.998 567.332 156.998 538.999 174.998 518.999 c 1
 192.998 496.999 214.998 485.999 240.998 485.999 c 0
 255.665 485.999 270.332 490.666 284.999 499.999 c 0
 296.332 506.666 306.999 517.666 316.999 532.999 c 1
 316.999 527.999 l 1
 316.999 524.999 l 2
 316.999 506.332 314.999 488.999 310.999 472.999 c 0
 308.332 459.666 303.999 446.999 297.999 434.999 c 1
 291.332 424.332 283.999 416.999 275.999 412.999 c 0
 266.666 406.999 256.333 403.999 245 403.999 c 0
 231.666 403.999 220.333 408.332 211 416.999 c 0
 201 426.999 195.333 440.999 194 458.999 c 1
 155 454.999 l 1
316.998 604.999 m 0
 316.998 579.666 310.998 561 298.998 549 c 0
 286.331 535.667 270.664 529 251.998 529 c 0
 232.665 529 216.998 535.667 204.998 549 c 0
 192.998 563 186.998 580.333 186.998 601 c 0
 186.998 624.333 193.331 643.666 205.998 658.999 c 0
 217.998 674.332 233.998 681.999 253.998 681.999 c 0
 271.998 681.999 286.998 674.999 298.998 660.999 c 0
 310.998 646.999 316.998 628.332 316.998 604.999 c 0
EndSplineSet
Validated: 524297
EndChar

StartChar: j
Encoding: 66 61546 66
Width: 212
LayerCount: 2
Fore
SplineSet
43 9 m 1
 54.333 35.667 69.999 49.001 89.999 49.001 c 0
 99.332 49.001 107.332 45.334 113.999 38.001 c 0
 119.999 30.668 123.666 20.001 124.999 6.001 c 0
 124.999 -1.33201 122.999 -12.332 118.999 -26.999 c 1
 113.666 -39.666 108.333 -49.999 103 -57.999 c 0
 98.333 -65.999 90 -77.999 78 -93.999 c 0
 72.667 -99.999 67 -106.666 61 -113.999 c 0
 55 -120.666 49 -128.333 43 -137 c 1
 43 9 l 1
15.999 -195.999 m 1
 16 -195 l 1
 26.667 -180.333 43.667 -162.666 67 -141.999 c 0
 81 -128.666 91.333 -119.666 98 -114.999 c 0
 108.667 -105.666 118.667 -96.666 128 -87.999 c 0
 137.333 -80.666 146.666 -72.333 155.999 -63 c 0
 158.666 -59 161.999 -55 165.999 -51 c 0
 167.332 -48.333 168.999 -46 170.999 -44 c 0
 173.666 -41.333 174.999 -39.666 174.999 -38.999 c 2
 184.999 -20.999 l 1
 188.999 -14.999 l 1
 191.666 -3.66599 192.999 4.33401 192.999 9.00101 c 0
 191.665 33.668 184.332 52.001 170.999 64.001 c 0
 163.666 70.668 155.666 75.668 146.999 79.001 c 0
 138.999 81.668 129.666 83.001 118.999 83.001 c 0
 92.999 83.001 67.666 71.668 42.999 49.001 c 1
 42.999 389.001 l 1
 15.999 389.001 l 1
 15.999 -195.999 l 1
EndSplineSet
Validated: 524297
EndChar

StartChar: k
Encoding: 67 61547 67
Width: 194
LayerCount: 2
Fore
SplineSet
21 -54 m 1
 144 -22 l 1
 144 -194 l 1
 170 -194 l 1
 170 247 l 1
 47 216 l 1
 47 388 l 1
 21 388 l 1
 21 -54 l 1
47 138 m 1
 144 162 l 1
 144 57 l 1
 47 33 l 1
 47 138 l 1
EndSplineSet
Validated: 9
EndChar

StartChar: l
Encoding: 68 61548 68
Width: 226
LayerCount: 2
Fore
SplineSet
139 56 m 1
 83 44 l 1
 83 157 l 1
 139 171 l 1
 139 56 l 1
58 37 m 1
 21 27 l 1
 21 -55 l 1
 58 -46 l 1
 58 -196 l 1
 83 -196 l 1
 83 -40 l 1
 139 -26 l 1
 139 -169 l 1
 164 -169 l 1
 164 -19 l 1
 203 -9 l 1
 203 72 l 1
 164 63 l 1
 164 176 l 1
 203 187 l 1
 203 267 l 1
 164 257 l 1
 164 407 l 1
 139 407 l 1
 139 251 l 1
 83 238 l 1
 83 389 l 1
 58 389 l 1
 58 232 l 1
 21 221 l 1
 21 142 l 1
 58 151 l 1
 58 37 l 1
EndSplineSet
Validated: 9
EndChar

StartChar: m
Encoding: 69 61549 69
Width: 587
LayerCount: 2
Fore
SplineSet
26 0 m 1
 90 -0.000976562 l 1
 90 218.999 l 2
 90 256.332 93.667 285.999 101 307.999 c 0
 107 327.999 118 343.332 134 353.999 c 0
 149.333 364.666 166.666 369.999 185.999 369.999 c 0
 209.332 369.999 226.665 361.999 237.998 345.999 c 0
 248.665 329.999 253.998 305.999 253.998 273.999 c 2
 253.998 -0.000976562 l 1
 318.998 -0.000976562 l 1
 318.998 244.999 l 2
 318.998 288.999 327.998 320.999 345.998 340.999 c 0
 362.665 360.332 384.998 369.999 412.998 369.999 c 0
 427.665 369.999 440.998 366.332 452.998 358.999 c 1
 464.331 350.332 471.998 339.999 475.998 327.999 c 0
 480.665 313.999 482.998 293.332 482.998 265.999 c 2
 482.998 -0.000976562 l 1
 546.998 -0.000976562 l 1
 546.998 295.999 l 2
 546.998 345.332 536.665 381.999 515.998 405.999 c 0
 494.665 429.999 465.332 441.999 427.999 441.999 c 0
 378.666 441.999 338.666 413.999 307.999 357.999 c 1
 300.666 384.666 288.333 405.333 271 420 c 0
 253 434.667 230.333 442 203 442 c 0
 177 442 155 434.667 137 420 c 1
 117 405.333 101.333 386.333 90 363 c 1
 90 435 l 1
 26 435 l 1
 26 3.05176e-05 l 1
 26 0 l 1
EndSplineSet
Validated: 524297
EndChar

StartChar: n
Encoding: 70 61550 70
Width: 1104
LayerCount: 2
Fore
SplineSet
26 0 m 1
 90 0 l 1
 90 219 l 2
 90 256.333 93.667 286 101 308 c 0
 107 328 118 343.333 134 354 c 0
 149.333 364.667 166.666 370 185.999 370 c 0
 209.332 370 226.665 362 237.998 346 c 0
 248.665 330 253.998 306 253.998 274 c 2
 253.998 0 l 1
 317.998 0 l 1
 317.998 245 l 2
 317.998 287.667 327.331 319.667 345.998 341 c 0
 362.665 360.333 384.998 370 412.998 370 c 0
 427.665 370 440.998 366.333 452.998 359 c 1
 464.331 350.333 471.998 340 475.998 328 c 0
 480.665 314 482.998 293.333 482.998 266 c 2
 482.998 0 l 1
 546.998 0 l 1
 546.998 296 l 2
 546.998 345.333 536.665 382 515.998 406 c 0
 494.665 430 465.332 442 427.999 442 c 0
 378.666 442 338.666 414 307.999 358 c 1
 300.666 383.333 288.333 404 271 420 c 1
 253 434.667 230.333 442 203 442 c 0
 177.666 442 155.333 434.667 136 420 c 0
 117.333 406 102 387 90 363 c 1
 90 435 l 1
 26 435 l 1
 26 0 l 1
600 522 m 1
 671 522 l 1
 671 594 l 1
 600 594 l 1
 600 522 l 1
600 -4 m 1
 671 -4 l 1
 671 431 l 1
 600 431 l 1
 600 -4 l 1
729 -2 m 1
 800.001 -2 l 1
 800.001 228 l 2
 800.001 281.333 811.334 318.333 834.001 339 c 0
 856.001 358.333 882.334 368 913.001 368 c 0
 931.668 368 948.668 363.667 964.001 355 c 1
 978.001 345.667 988.001 334 994.001 320 c 1
 999.334 304.667 1002 282.667 1002 254 c 2
 1002 -2 l 1
 1074 -2 l 1
 1074 263 l 2
 1074 292.333 1072.67 316 1070 334 c 1
 1066 353.333 1058.67 371.333 1048 388 c 1
 1035.33 404 1019.67 416.333 1001 425 c 0
 979.667 435 956.667 440 932 440 c 0
 874 440 830 417.333 800 372 c 1
 800 433 l 1
 729 433 l 1
 729 -2 l 1
EndSplineSet
Validated: 524297
EndChar

StartChar: o
Encoding: 71 61551 71
Width: 975
LayerCount: 2
Fore
SplineSet
376 492 m 1
 378.667 460 389.001 435.334 407.001 418.001 c 1
 424.335 399.334 447.668 390.001 477 390.001 c 0
 511.667 390.001 539 404.334 559 433.001 c 0
 575.667 457.668 584 485.668 584 517.001 c 0
 584 549.001 574.667 576.668 556 600.001 c 1
 537.333 621.334 514.666 632.001 487.999 632.001 c 0
 467.332 632.001 447.999 623.668 429.999 607.001 c 1
 446.999 706.001 l 1
 565.999 706.001 l 1
 565.999 749.001 l 1
 414.999 749.001 l 1
 382.999 566.001 l 1
 421.999 558.001 l 1
 426.666 567.334 433.999 574.667 443.999 580 c 1
 452.666 586 463.999 589 477.999 589 c 0
 498.666 589 515.333 582.333 528 569 c 1
 539.333 555 545 536.667 545 514 c 0
 545 488.667 538.667 469 526 455 c 0
 514 440.333 497.667 433 477 433 c 0
 459.667 433 445.667 438.333 435 449 c 0
 424.332 459 417.665 474.333 415 495 c 1
 376 492 l 1
86.001 1.00098 m 1
 108.001 2.00195 l 1
 72.668 62.0019 55.001 122.002 55.001 182.002 c 0
 55.001 204.669 57.668 228.336 63.001 253.002 c 0
 67.001 274.335 72.668 292.335 80.001 307.002 c 0
 82.668 314.335 92.001 333.002 108.001 363.002 c 1
 86.001 363.002 l 1
 64.001 331.669 48.001 300.002 38.001 268.002 c 0
 29.334 242.002 25.001 213.335 25.001 182.002 c 0
 25.001 149.335 30.668 116.668 42.001 84.001 c 0
 53.334 52.668 68.001 25.001 86.001 1.00095 c 1
 86.001 1.00098 l 1
133.001 -1.99805 m 1
 171.001 -1.99805 l 1
 171.001 136.002 l 2
 171.001 166.669 177.001 188.669 189.001 202.002 c 0
 201.001 214.002 215.668 220.002 233.001 220.002 c 0
 242.334 220.002 251.334 217.335 260.001 212.002 c 1
 267.336 206.002 272.669 199.002 276 191.002 c 0
 278.667 183.002 280 169.669 280 151.002 c 2
 280 -1.99805 l 1
 319 -1.99805 l 1
 319 157.002 l 2
 319 174.335 318.333 188.335 317 199.002 c 0
 315 211.669 311 222.669 305 232.002 c 0
 300.333 240.002 292 247.335 280 254.002 c 0
 268.667 260.002 256.334 263.002 243.001 263.002 c 0
 211.668 263.002 187.668 249.335 171.001 222.002 c 1
 171.001 259.002 l 1
 133.001 259.002 l 1
 133.001 -1.99802 l 1
 133.001 -1.99805 l 1
346.001 135.002 m 0
 346.001 89.002 355.668 55.6689 375.001 35.002 c 1
 395.001 11.6689 421.001 0.0019989 453.001 0.0019989 c 0
 473.001 0.0019989 491.334 5.33501 508.001 16.002 c 1
 524.668 25.335 537.668 40.002 547.001 60.002 c 0
 555.668 78.002 560.001 104.002 560.001 138.002 c 0
 560.001 178.669 550.001 210.669 530.001 234.002 c 0
 510.001 257.335 484.334 269.002 453.001 269.002 c 0
 424.334 269.002 400.334 259.669 381.001 241.002 c 0
 357.668 218.335 346.001 183.002 346.001 135.002 c 0
384.001 135.002 m 0
 384.001 165.002 390.667 188.002 404 204.002 c 0
 416.667 218.669 433 226.002 453 226.002 c 0
 473 226.002 489.333 218.335 502 203.002 c 0
 514.667 188.335 521 166.002 521 136.002 c 0
 521 103.335 514.667 80.002 502 66.002 c 0
 488.667 50.6689 472.334 43.002 453.001 43.002 c 0
 433.001 43.002 416.668 50.6689 404.001 66.002 c 0
 390.668 81.335 384.001 104.335 384.001 135.002 c 0
661 101.002 m 1
 662.333 71.6689 672.669 47.3359 692.002 28.0029 c 0
 709.335 9.3359 732.335 0.00289917 761.002 0.00289917 c 0
 792.335 0.00289917 818.002 11.0029 838.002 33.0029 c 0
 858.002 55.0029 868.002 81.6699 868.002 113.003 c 0
 868.002 136.336 862.669 156.003 852.002 172.003 c 1
 840.002 187.336 824.669 197.669 806.002 203.002 c 1
 820.669 209.669 831.669 219.336 839.002 232.002 c 0
 847.002 244.002 851.002 257.669 851.002 273.002 c 0
 851.002 289.002 847.002 304.002 839.002 318.002 c 0
 831.002 332.002 820.002 343.002 806.002 351.002 c 0
 792.002 359.002 776.335 363.002 759.002 363.002 c 0
 733.669 363.002 712.669 354.669 696.002 338.002 c 0
 679.335 321.335 668.668 298.335 664.001 269.002 c 1
 703.001 262.002 l 1
 705.668 281.335 712.001 296.002 722.001 306.002 c 0
 732.001 315.335 744.668 320.002 760.001 320.002 c 0
 775.334 320.002 787.667 315.335 797 306.002 c 0
 807 296.669 812 285.002 812 271.002 c 0
 812 253.002 805.333 239.669 792 231.002 c 0
 778.661 222.335 764.328 218.002 749.001 218.002 c 0
 746.334 218.002 744.334 218.335 743.001 219.002 c 1
 738.001 176.002 l 1
 750.001 179.335 759.334 181.002 766.001 181.002 c 0
 784.001 181.002 799.334 174.335 812.001 161.002 c 0
 824.001 149.002 830.001 133.335 830.001 114.002 c 0
 830.001 94.6689 823.668 77.6689 811.001 63.002 c 0
 798.334 49.6689 782.334 43.002 763.001 43.002 c 0
 745.668 43.002 732.001 48.002 722.001 58.002 c 0
 711.334 69.335 703.667 86.335 699 109.002 c 1
 661 101.002 l 1
890.003 -1.99805 m 0
 907.336 22.0021 922.003 49.333 934.003 79.9999 c 0
 946.003 112 952.003 145 952.003 179 c 0
 952.003 208.333 947.336 237 938.003 265 c 0
 928.003 297 912.003 329 890.003 361 c 1
 868.003 361 l 1
 884.003 329.667 893.336 310.667 896.003 304 c 0
 902.003 290.667 907.67 272.334 913.003 249.001 c 0
 918.336 224.334 921.003 201.001 921.003 179.001 c 0
 921.003 117.668 903.336 57.3349 868.003 -1.99805 c 1
 890.003 -1.99805 l 0
EndSplineSet
Validated: 524293
EndChar

StartChar: p
Encoding: 72 61552 72
Width: 975
LayerCount: 2
Fore
SplineSet
464 492 m 1
 466.667 460 477.003 435.334 495.003 418.001 c 1
 512.336 399.334 535.669 390.001 565.002 390.001 c 0
 599.669 390.001 627.002 404.334 647.002 433.001 c 0
 663.669 457.668 672.002 485.668 672.002 517.001 c 0
 672.002 549.001 662.669 576.668 644.002 600.001 c 1
 625.335 621.334 602.668 632.001 576.001 632.001 c 0
 555.334 632.001 536.001 623.668 518.001 607.001 c 1
 535.001 706.001 l 1
 654.001 706.001 l 1
 654.001 749.001 l 1
 503.001 749.001 l 1
 471.001 566.001 l 1
 510.001 558.001 l 1
 514.668 567.334 522.001 574.667 532.001 580 c 0
 542.001 586 553.334 589 566.001 589 c 0
 588.001 589 604.668 582.333 616.001 569 c 0
 627.334 555 633.001 536.667 633.001 514 c 0
 633.001 488.667 626.668 469 614.001 455 c 0
 602.001 440.333 585.668 433 565.001 433 c 0
 547.668 433 533.668 438.333 523.001 449 c 0
 512.334 459 505.667 474.333 503 495 c 1
 464 492 l 1
339.003 516.001 m 1
 345.67 532.668 355.335 541 368.002 541 c 0
 373.335 541 378.002 538.667 382.002 534 c 0
 386.669 529.333 389.002 522.666 389.002 513.999 c 0
 389.002 505.999 387.669 499.332 385.002 493.999 c 0
 382.335 486.666 379.335 480.333 376.002 475 c 0
 370.669 465.667 365.336 458.334 360.003 453.001 c 1
 354.003 445.001 347.003 436.001 339.003 426.001 c 1
 339.003 516.001 l 1
322.001 390 m 1
 323.001 391 l 1
 328.334 399 338.334 409.667 353.001 423 c 0
 356.337 425 359.67 427.667 363.001 431 c 0
 366.335 434.333 369.668 437.333 373.001 440 c 0
 375.668 442 378.668 444.667 382.001 448 c 0
 384.668 450.667 387.668 453.334 391.001 456.001 c 0
 395.001 459.338 400.668 464.671 408.001 472.001 c 1
 420.001 487.001 l 2
 423.334 491.001 426.001 495.668 428.001 501.001 c 0
 430.001 505.668 431.001 510.668 431.001 516.001 c 0
 431.001 531.334 426.334 542.667 417.001 550 c 0
 413.001 553.333 408.334 556.333 403.001 559 c 0
 397.001 561 391.001 562 385.001 562 c 0
 368.334 562 353.001 555 339.001 541 c 1
 339.001 750 l 1
 323.001 750 l 1
 322.001 390 l 1
86.001 1 m 1
 108.001 2.00098 l 1
 72.668 62.001 55.001 122.001 55.001 182.001 c 0
 55.001 204.668 57.668 228.335 63.001 253.001 c 0
 67.001 274.334 72.668 292.334 80.001 307.001 c 0
 82.668 314.334 92.001 333.001 108.001 363.001 c 1
 86.001 363.001 l 1
 64.001 331.668 48.001 300.001 38.001 268.001 c 0
 29.334 242.001 25.001 213.334 25.001 182.001 c 0
 25.001 149.334 30.668 116.667 42.001 84 c 0
 53.334 52.667 68.001 25 86.001 0.999977 c 1
 86.001 1 l 1
133.001 -1.99902 m 1
 171.001 -1.99902 l 1
 171.001 136.001 l 2
 171.001 166.668 177.001 188.668 189.001 202.001 c 0
 201.001 214.001 215.668 220.001 233.001 220.001 c 0
 242.334 220.001 251.334 217.334 260.001 212.001 c 1
 267.336 206.001 272.669 199.001 276 191.001 c 0
 278.667 183.001 280 169.668 280 151.001 c 2
 280 -1.99902 l 1
 319 -1.99902 l 1
 319 157.001 l 2
 319 174.334 318.333 188.334 317 199.001 c 0
 315 211.668 311 222.668 305 232.001 c 0
 300.333 240.001 292 247.334 280 254.001 c 0
 268.667 260.001 256.334 263.001 243.001 263.001 c 0
 211.668 263.001 187.668 249.334 171.001 222.001 c 1
 171.001 259.001 l 1
 133.001 259.001 l 1
 133.001 -1.99902 l 1
346.001 135.001 m 0
 346.001 89.001 355.668 55.668 375.001 35.001 c 1
 395.001 11.668 421.001 0.00100708 453.001 0.00100708 c 0
 473.001 0.00100708 491.334 5.33401 508.001 16.001 c 1
 524.668 25.334 537.668 40.001 547.001 60.001 c 0
 555.668 78.001 560.001 104.001 560.001 138.001 c 0
 560.001 178.668 550.001 210.668 530.001 234.001 c 0
 510.001 257.334 484.334 269.001 453.001 269.001 c 0
 424.334 269.001 400.334 259.668 381.001 241.001 c 0
 357.668 218.334 346.001 183.001 346.001 135.001 c 0
384.001 135.001 m 0
 384.001 165.001 390.667 188.001 404 204.001 c 0
 416.667 218.668 433 226.001 453 226.001 c 0
 473 226.001 489.333 218.334 502 203.001 c 0
 514.667 188.334 521 166.001 521 136.001 c 0
 521 103.334 514.667 80.001 502 66.001 c 0
 488.667 50.668 472.334 43.001 453.001 43.001 c 0
 433.001 43.001 416.668 50.668 404.001 66.001 c 0
 390.668 81.334 384.001 104.334 384.001 135.001 c 0
661 101.001 m 1
 662.333 71.668 672.669 47.335 692.002 28.002 c 0
 709.335 9.335 732.335 0.0019989 761.002 0.0019989 c 0
 792.335 0.0019989 818.002 11.002 838.002 33.002 c 0
 858.002 55.002 868.002 81.6689 868.002 113.002 c 0
 868.002 136.335 862.669 156.002 852.002 172.002 c 1
 840.002 187.335 824.669 197.668 806.002 203.001 c 1
 820.669 209.668 831.669 219.335 839.002 232.001 c 0
 847.002 244.001 851.002 257.668 851.002 273.001 c 0
 851.002 289.001 847.002 304.001 839.002 318.001 c 0
 831.002 332.001 820.002 343.001 806.002 351.001 c 0
 792.002 359.001 776.335 363.001 759.002 363.001 c 0
 733.669 363.001 712.669 354.668 696.002 338.001 c 0
 679.335 321.334 668.668 298.334 664.001 269.001 c 1
 703.001 262.001 l 1
 705.668 281.334 712.001 296.001 722.001 306.001 c 0
 732.001 315.334 744.668 320.001 760.001 320.001 c 0
 775.334 320.001 787.667 315.334 797 306.001 c 0
 807 296.668 812 285.001 812 271.001 c 0
 812 253.001 805.333 239.668 792 231.001 c 0
 778.661 222.334 764.328 218.001 749.001 218.001 c 0
 746.334 218.001 744.334 218.334 743.001 219.001 c 1
 738.001 176.001 l 1
 750.001 179.334 759.334 181.001 766.001 181.001 c 0
 784.001 181.001 799.334 174.334 812.001 161.001 c 0
 824.001 149.001 830.001 133.334 830.001 114.001 c 0
 830.001 94.668 823.668 77.668 811.001 63.001 c 0
 798.334 49.668 782.334 43.001 763.001 43.001 c 0
 745.668 43.001 732.001 48.001 722.001 58.001 c 0
 711.334 69.334 703.667 86.334 699 109.001 c 1
 661 101.001 l 1
890.003 -1.99902 m 0
 907.336 22.001 922.003 49.332 934.003 79.999 c 0
 946.003 111.999 952.003 144.999 952.003 178.999 c 0
 952.003 208.332 947.336 236.999 938.003 264.999 c 0
 928.003 296.999 912.003 328.999 890.003 360.999 c 1
 868.003 360.999 l 1
 884.003 329.666 893.336 310.666 896.003 303.999 c 0
 902.003 290.666 907.67 272.333 913.003 249 c 0
 918.336 224.333 921.003 201 921.003 179 c 0
 921.003 117.667 903.336 57.334 868.003 -1.99903 c 1
 890.003 -1.99902 l 0
EndSplineSet
Validated: 524293
EndChar

StartChar: q
Encoding: 73 61553 73
Width: 975
LayerCount: 2
Fore
SplineSet
464 492 m 1
 466.667 460 477.003 435.334 495.003 418.001 c 1
 512.336 399.334 535.669 390.001 565.002 390.001 c 0
 599.669 390.001 627.002 404.334 647.002 433.001 c 0
 663.669 457.668 672.002 485.668 672.002 517.001 c 0
 672.002 549.001 662.669 576.668 644.002 600.001 c 1
 625.335 621.334 602.668 632.001 576.001 632.001 c 0
 555.334 632.001 536.001 623.668 518.001 607.001 c 1
 535.001 706.001 l 1
 654.001 706.001 l 1
 654.001 749.001 l 1
 503.001 749.001 l 1
 471.001 566.001 l 1
 510.001 558.001 l 1
 514.668 567.334 522.001 574.667 532.001 580 c 0
 542.001 586 553.334 589 566.001 589 c 0
 588.001 589 604.668 582.333 616.001 569 c 0
 627.334 555 633.001 536.667 633.001 514 c 0
 633.001 488.667 626.668 469 614.001 455 c 0
 602.001 440.333 585.668 433 565.001 433 c 0
 547.668 433 533.668 438.333 523.001 449 c 0
 512.334 459 505.667 474.333 503 495 c 1
 464 492 l 1
386.003 545.001 m 1
 352.003 537.001 l 1
 352.003 607.001 l 1
 386.003 616.001 l 1
 386.003 545.001 l 1
336.003 533.001 m 1
 314.003 527.001 l 1
 314.003 476.001 l 1
 336.003 482.001 l 1
 336.003 389.001 l 1
 352.003 389.001 l 1
 352.003 485.001 l 1
 386.003 494.001 l 1
 386.003 406.001 l 1
 402.003 406.001 l 1
 402.003 498.001 l 1
 426.003 504.001 l 1
 426.003 555.001 l 1
 402.003 549.001 l 1
 402.003 619.001 l 1
 426.003 625.001 l 1
 426.003 674.001 l 1
 402.003 669.001 l 1
 402.003 761.001 l 1
 386.003 761.001 l 1
 386.003 665.001 l 1
 352.003 657.001 l 1
 352.003 749.001 l 1
 336.003 749.001 l 1
 336.003 653.001 l 1
 314.003 647.001 l 1
 314.003 598.001 l 1
 336.003 603.001 l 1
 336.003 533.001 l 1
86.0029 1.00098 m 1
 108.003 2.00195 l 1
 72.6699 62.0019 55.0029 122.002 55.0029 182.002 c 0
 55.0029 204.669 57.6699 228.336 63.0029 253.002 c 0
 67.0029 274.335 72.6699 292.335 80.0029 307.002 c 0
 82.6699 314.335 92.0029 333.002 108.003 363.002 c 1
 86.0029 363.002 l 1
 64.0029 331.669 48.0029 300.002 38.0029 268.002 c 0
 29.3359 242.002 25.0029 213.335 25.0029 182.002 c 0
 25.0029 149.335 30.6699 116.668 42.0029 84.001 c 0
 53.3359 52.668 68.0029 25.001 86.0029 1.00095 c 1
 86.0029 1.00098 l 1
133.003 -1.99805 m 1
 171.003 -1.99805 l 1
 171.003 136.002 l 2
 171.003 166.669 177.003 188.669 189.003 202.002 c 0
 201.003 214.002 215.67 220.002 233.003 220.002 c 0
 242.336 220.002 251.336 217.335 260.003 212.002 c 1
 267.338 206.002 272.671 199.002 276.002 191.002 c 0
 278.669 183.002 280.002 169.669 280.002 151.002 c 2
 280.002 -1.99805 l 1
 319.002 -1.99805 l 1
 319.002 157.002 l 2
 319.002 174.335 318.335 188.335 317.002 199.002 c 0
 315.002 211.669 311.002 222.669 305.002 232.002 c 0
 300.335 240.002 292.002 247.335 280.002 254.002 c 0
 268.669 260.002 256.336 263.002 243.003 263.002 c 0
 211.67 263.002 187.67 249.335 171.003 222.002 c 1
 171.003 259.002 l 1
 133.003 259.002 l 1
 133.003 -1.99802 l 1
 133.003 -1.99805 l 1
346.003 135.002 m 0
 346.003 89.002 355.67 55.6689 375.003 35.002 c 1
 395.003 11.6689 421.003 0.0019989 453.003 0.0019989 c 0
 473.003 0.0019989 491.336 5.33501 508.003 16.002 c 1
 524.67 25.335 537.67 40.002 547.003 60.002 c 0
 555.67 78.002 560.003 104.002 560.003 138.002 c 0
 560.003 178.669 550.003 210.669 530.003 234.002 c 0
 510.003 257.335 484.336 269.002 453.003 269.002 c 0
 424.336 269.002 400.336 259.669 381.003 241.002 c 0
 357.67 218.335 346.003 183.002 346.003 135.002 c 0
384.003 135.002 m 0
 384.003 165.002 390.669 188.002 404.002 204.002 c 0
 416.669 218.669 433.002 226.002 453.002 226.002 c 0
 473.002 226.002 489.335 218.335 502.002 203.002 c 0
 514.669 188.335 521.002 166.002 521.002 136.002 c 0
 521.002 103.335 514.669 80.002 502.002 66.002 c 0
 488.669 50.6689 472.336 43.002 453.003 43.002 c 0
 433.003 43.002 416.67 50.6689 404.003 66.002 c 0
 390.67 81.335 384.003 104.335 384.003 135.002 c 0
661.002 101.002 m 1
 662.335 71.6689 672.671 47.3359 692.004 28.0029 c 0
 709.337 9.3359 732.337 0.00289917 761.004 0.00289917 c 0
 792.337 0.00289917 818.004 11.0029 838.004 33.0029 c 0
 858.004 55.0029 868.004 81.6699 868.004 113.003 c 0
 868.004 136.336 862.671 156.003 852.004 172.003 c 1
 840.004 187.336 824.671 197.669 806.004 203.002 c 1
 820.671 209.669 831.671 219.336 839.004 232.002 c 0
 847.004 244.002 851.004 257.669 851.004 273.002 c 0
 851.004 289.002 847.004 304.002 839.004 318.002 c 0
 831.004 332.002 820.004 343.002 806.004 351.002 c 0
 792.004 359.002 776.337 363.002 759.004 363.002 c 0
 733.671 363.002 712.671 354.669 696.004 338.002 c 0
 679.337 321.335 668.67 298.335 664.003 269.002 c 1
 703.003 262.002 l 1
 705.67 281.335 712.003 296.002 722.003 306.002 c 0
 732.003 315.335 744.67 320.002 760.003 320.002 c 0
 775.336 320.002 787.669 315.335 797.002 306.002 c 0
 807.002 296.669 812.002 285.002 812.002 271.002 c 0
 812.002 253.002 805.335 239.669 792.002 231.002 c 0
 778.663 222.335 764.33 218.002 749.003 218.002 c 0
 746.336 218.002 744.336 218.335 743.003 219.002 c 1
 738.003 176.002 l 1
 750.003 179.335 759.336 181.002 766.003 181.002 c 0
 784.003 181.002 799.336 174.335 812.003 161.002 c 0
 824.003 149.002 830.003 133.335 830.003 114.002 c 0
 830.003 94.6689 823.67 77.6689 811.003 63.002 c 0
 798.336 49.6689 782.336 43.002 763.003 43.002 c 0
 745.67 43.002 732.003 48.002 722.003 58.002 c 0
 711.336 69.335 703.669 86.335 699.002 109.002 c 1
 661.002 101.002 l 1
890.005 -1.99805 m 0
 907.338 22.0021 922.005 49.333 934.005 79.9999 c 0
 946.005 112 952.005 145 952.005 179 c 0
 952.005 208.333 947.338 237 938.005 265 c 0
 928.005 297 912.005 329 890.005 361 c 1
 868.005 361 l 1
 884.005 329.667 893.338 310.667 896.005 304 c 0
 902.005 290.667 907.672 272.334 913.005 249.001 c 0
 918.338 224.334 921.005 201.001 921.005 179.001 c 0
 921.005 117.668 903.338 57.3349 868.005 -1.99805 c 1
 890.005 -1.99805 l 0
EndSplineSet
Validated: 524293
EndChar

StartChar: r
Encoding: 74 61554 74
Width: 700
LayerCount: 2
Fore
SplineSet
25 362 m 1
 62.999 362 l 1
 62.999 494 l 2
 62.999 515.333 65.332 533 69.999 547 c 0
 73.999 559 80.666 568.333 89.999 575 c 0
 97.999 581.667 108.332 585 120.999 585 c 0
 135.666 585 145.999 580 151.999 570 c 1
 158.666 561.333 161.999 547 161.999 527 c 2
 161.999 362 l 1
 200.999 362 l 1
 200.999 510 l 2
 200.999 536 206.332 555 216.999 567 c 0
 226.999 579 240.666 585 257.999 585 c 0
 265.999 585 273.666 582.667 280.999 578 c 1
 288.332 572 292.999 565.667 294.999 559 c 0
 297.666 552.333 298.999 540 298.999 522 c 2
 298.999 362 l 1
 337.999 362 l 1
 337.999 540 l 2
 337.999 568.667 331.666 590.667 318.999 606 c 0
 306.332 620.667 288.665 628 265.999 628 c 0
 236.666 628 212.666 611 193.999 577 c 1
 189.332 593.669 181.999 606.336 171.999 615 c 1
 159.999 623.667 146.332 628 130.999 628 c 0
 116.999 628 103.666 623.667 90.999 615 c 1
 79.666 605.664 70.333 594.331 63 581 c 1
 63 624 l 1
 25 624 l 1
 25 362 l 1
541.999 396 m 1
 543.999 382 547.666 371.334 552.999 364.001 c 1
 591.999 364.001 l 1
 586.666 375.334 583.666 388.001 582.999 402.001 c 0
 581.666 417.335 580.999 442.668 580.999 478.001 c 2
 580.999 533.001 l 2
 580.999 549.668 580.332 562.668 578.999 572.001 c 0
 576.999 583.334 572.999 593.334 566.999 602.001 c 0
 560.332 610.001 550.999 616.668 538.999 622.001 c 0
 525.666 627.334 509.333 630.001 490 630.001 c 0
 469.332 630.001 451.665 627.001 436.999 621.001 c 0
 421.666 614.334 409.999 605.667 401.999 595 c 0
 393.332 583.666 387.332 569.333 383.999 552 c 1
 422.999 544 l 1
 426.336 559.333 432.669 570.666 441.999 577.999 c 0
 450.666 583.999 464.333 586.999 483 586.999 c 0
 502.335 586.999 517.335 582.332 528 572.999 c 0
 535.333 566.332 539 554.999 539 538.999 c 2
 539 534.999 l 1
 539 528.999 l 1
 523.666 522.999 499.999 517.999 468 513.999 c 0
 457.332 512.666 445.665 510.333 433 507 c 0
 422.333 503.667 413 499 405 493 c 0
 397 487 390.333 478.667 385 468 c 0
 379.667 456 377 444.667 377 434 c 0
 377 412.667 384 395 398 381 c 0
 410 367.667 429.333 361 456 361 c 0
 472.667 361 487 363.667 499 369 c 1
 512.333 373.667 526.666 382.667 541.999 396 c 1
538.999 486.001 m 1
 538.999 473 l 2
 538.999 459.667 536.666 448.334 531.999 439.001 c 0
 525.999 429.001 516.999 420.668 504.999 414.001 c 0
 492.999 407.334 479.332 404.001 463.999 404.001 c 0
 447.999 404.001 435.999 407.001 427.999 413.001 c 0
 419.999 419.001 415.999 426.668 415.999 436.001 c 0
 415.999 442.001 417.999 447.668 421.999 453.001 c 0
 423.999 457.001 428.999 461.001 436.999 465.001 c 1
 448.332 467.668 460.332 470.001 472.999 472.001 c 0
 504.332 476.001 526.332 480.668 538.999 486.001 c 1
635.999 681 m 1
 674.999 681 l 1
 674.999 724 l 1
 635.999 724 l 1
 635.999 681 l 1
585.999 268 m 1
 593.999 264.667 604.332 263 616.999 263 c 0
 638.999 263 654.666 271 663.999 287 c 0
 671.332 299 674.999 321 674.999 353 c 2
 674.999 626 l 1
 635.999 626 l 1
 635.999 358 l 2
 635.999 334.667 633.999 320 629.999 314 c 0
 626.666 308.667 620.999 306 612.999 306 c 0
 608.332 306 601.999 307 593.999 309 c 1
 585.999 268 l 1
EndSplineSet
Validated: 524297
EndChar

StartChar: t
Encoding: 75 61556 75
Width: 526
LayerCount: 2
Fore
SplineSet
124 387 m 1
 167 387 l 1
 167 485 l 1
 264 485 l 1
 264 528 l 1
 167 528 l 1
 167 626 l 1
 124 626 l 1
 124 528 l 1
 26 528 l 1
 26 485 l 1
 124 485 l 1
 124 387 l 1
290 464 m 1
 291.334 434 301.667 409.333 321 390 c 0
 339 372 362 363 390 363 c 0
 425.333 363 453 377.333 473 406 c 0
 489 428.667 497 456.334 497 489.001 c 0
 497 523.001 488 551.001 470 573.001 c 0
 451.332 594.334 428.665 605.001 401.999 605.001 c 0
 381.332 605.001 361.999 596.668 343.999 580.001 c 1
 360.999 679.001 l 1
 479.999 679.001 l 1
 479.999 722.001 l 1
 328.999 722.001 l 1
 296.999 539.001 l 1
 335.999 531.001 l 1
 339.999 538.334 347.332 545.667 357.999 553 c 0
 366.666 559 377.999 562 391.999 562 c 0
 412.666 562 429.333 555.333 442 542 c 1
 453.333 528 459 509.667 459 487 c 0
 459 461 452.667 441.333 440 428 c 1
 428 413.333 411.667 406 391 406 c 0
 373.667 406 359.667 411 349 421 c 0
 338.332 432.333 331.665 448 329 468 c 1
 290 464 l 1
EndSplineSet
Validated: 524297
EndChar

StartChar: u
Encoding: 76 61557 76
Width: 922
LayerCount: 2
Fore
SplineSet
20 315 m 1
 23.333 288.333 33.333 267.998 50 253.998 c 0
 66 239.998 89 232.998 119 232.998 c 0
 137 232.998 153.333 236.665 168 243.998 c 0
 181.333 249.998 192.666 260.331 201.999 274.998 c 0
 209.332 288.331 212.999 301.998 212.999 315.998 c 0
 212.999 331.998 209.666 344.998 202.999 354.998 c 0
 196.332 364.998 187.332 372.665 175.999 377.998 c 0
 164.666 382.665 145.666 389.665 118.999 398.998 c 1
 108.999 400.998 101.332 402.998 95.999 404.998 c 0
 91.999 405.665 88.332 406.665 84.999 407.998 c 0
 76.999 410.665 71.999 413.998 69.999 417.998 c 0
 67.332 421.335 65.999 425.668 65.999 430.998 c 0
 65.999 439.665 69.666 446.332 76.999 450.999 c 1
 83.666 456.999 95.999 459.999 113.999 459.999 c 0
 127.999 459.999 139.666 456.666 148.999 449.999 c 1
 156.332 442.666 161.332 432.999 163.999 420.999 c 1
 202.999 428.999 l 1
 199.666 447.666 194.999 461.333 188.999 470 c 0
 182.999 480 172.999 488 158.999 494 c 0
 144.999 500 128.999 503 110.999 503 c 0
 99.666 503 88.666 501.333 77.999 498 c 0
 65.999 493.329 57.666 488.662 52.999 483.999 c 0
 44.999 477.999 38.666 469.999 33.999 459.999 c 0
 29.332 450.666 26.999 439.666 26.999 426.999 c 0
 26.999 413.666 29.999 401.666 35.999 390.999 c 0
 41.332 379.666 49.665 371.666 60.998 366.999 c 1
 73.665 359.666 93.332 352.333 119.999 345 c 0
 138.666 340.333 152.333 336 161 332 c 0
 170.333 326.667 175 320 175 312 c 0
 175 302 170.333 293.667 161 287 c 0
 151 279.667 137.333 276 120 276 c 0
 102 276 87.667 280.333 77 289 c 1
 67 295 60.667 306.333 58 323 c 1
 20 315 l 1
391 236.998 m 1
 430 236.998 l 1
 430 498.998 l 1
 391 498.998 l 1
 391 362.998 l 2
 391 341.665 389 324.998 385 312.998 c 0
 381 302.331 373.667 293.331 363 285.998 c 0
 353 279.998 342 276.998 330 276.998 c 0
 318 276.998 308 279.998 300 285.998 c 0
 292 292.665 287 301.665 285 312.998 c 0
 283 320.998 282 335.998 282 357.998 c 2
 282 498.998 l 1
 244 498.998 l 1
 244 337.998 l 2
 244 321.998 244.667 308.331 246 296.998 c 0
 248 283.665 252 272.665 258 263.998 c 1
 262.667 255.331 271 247.998 283 241.998 c 0
 293.667 236.665 306 233.998 320 233.998 c 0
 350 233.998 373.667 249.998 391 281.998 c 1
 391 236.998 l 1
461 310.998 m 1
 465 282.998 474.999 262.33 490.999 248.997 c 0
 506.999 235.664 529.999 228.997 559.999 228.997 c 0
 579.332 228.997 595.665 232.33 608.998 238.997 c 0
 623.665 246.33 634.998 256.663 642.998 269.996 c 0
 650.331 283.329 653.998 297.329 653.998 311.996 c 0
 653.998 327.329 650.665 339.996 643.998 349.996 c 0
 637.331 359.996 628.331 367.663 616.998 372.996 c 0
 605.665 378.996 586.665 385.996 559.998 393.996 c 1
 538.661 399.336 527.328 402.669 525.999 403.996 c 1
 519.332 405.336 514.332 408.669 510.999 413.996 c 1
 507.666 417.333 505.999 421.666 505.999 426.996 c 0
 505.999 434.329 509.999 440.996 517.999 446.996 c 0
 525.332 452.329 537.665 454.996 554.998 454.996 c 0
 570.331 454.996 581.998 451.663 589.998 444.996 c 0
 597.331 437.663 602.331 427.996 604.998 415.996 c 1
 642.998 423.996 l 1
 640.998 439.996 636.665 453.663 629.998 464.996 c 1
 622.665 474.996 612.665 482.996 599.998 488.996 c 0
 585.998 494.996 569.998 497.996 551.998 497.996 c 0
 541.331 497.996 529.998 496.329 517.998 492.996 c 1
 506.665 488.329 498.665 483.996 493.998 479.996 c 0
 484.665 471.329 478.332 462.996 474.999 454.996 c 0
 470.332 445.663 467.999 434.663 467.999 421.996 c 0
 467.999 409.328 470.666 397.661 475.999 386.996 c 0
 481.332 376.329 489.999 367.996 501.999 361.996 c 0
 510.666 356.663 530.333 349.33 561 339.997 c 0
 581.671 333.997 595.338 329.664 602 326.997 c 1
 610.667 321.664 615 314.997 615 306.997 c 0
 615 296.997 610.667 288.664 602 281.997 c 0
 593.333 275.33 579.666 271.997 560.999 271.997 c 0
 542.332 271.997 527.999 275.997 517.999 283.997 c 0
 506.666 292.664 500.333 304.331 499 318.998 c 1
 461 310.998 l 1
790.999 -0.00292969 m 1
 829.999 -0.00292969 l 1
 829.999 84.9971 l 1
 867.999 84.9971 l 1
 867.999 127.997 l 1
 829.999 127.997 l 1
 829.999 354.997 l 1
 797.999 354.997 l 1
 646.999 127.997 l 1
 646.999 84.9971 l 1
 790.999 84.9971 l 1
 790.999 -0.00292206 l 1
 790.999 -0.00292969 l 1
790.999 127.997 m 1
 693.999 127.997 l 1
 790.999 272.997 l 1
 790.999 127.997 l 1
879.999 431.997 m 1
 723.002 431.995 l 1
 726.335 438.662 732.335 446.329 741.002 454.996 c 0
 750.335 465.663 765.668 480.33 787.001 498.997 c 1
 815.001 526.33 834.334 546.997 845.001 560.997 c 0
 856.334 575.664 864.667 590.664 870 605.997 c 0
 874.667 617.997 877 631.997 877 647.997 c 0
 877 676.664 868 700.664 850 719.997 c 0
 832.667 739.33 809 748.997 779 748.997 c 0
 749 748.997 725 740.33 707 722.997 c 0
 688.333 703.662 678.333 678.329 677 646.997 c 1
 715 638.997 l 1
 715 659.664 721 675.997 733 687.997 c 0
 743.667 699.997 758.667 705.997 778 705.997 c 0
 795.333 705.997 810 699.997 822 687.997 c 0
 832.667 677.33 838 663.33 838 645.997 c 0
 838 629.33 832 611.997 820 593.997 c 0
 806.664 575.33 783.331 550.33 750.001 518.997 c 1
 731.334 502.997 714.667 485.664 700 466.997 c 0
 687.333 450.997 678.666 435.33 673.999 419.997 c 0
 671.332 411.33 669.999 403.33 669.999 395.997 c 2
 669.999 391.997 l 1
 669.999 388.997 l 1
 879.999 388.997 l 1
 879.999 431.997 l 1
EndSplineSet
Validated: 524297
EndChar
